<?xml version="1.0" standalone="no"?> <!DOCTYPE svg PUBLIC "-//W3C//DTD SVG 1.0//EN" "http://www.w3.org/TR/2001/REC-SVG-20010904/DTD/svg10.dtd" > <svg xmlns="http://www.w3.org/2000/svg" width="100%" height="100%">
<defs >
<font id="parchmentmf" horiz-adv-x="583" ><font-face
    font-family="Parchment MF"
    units-per-em="2048"
    panose-1="0 0 4 0 0 0 0 0 0 0"
    ascent="1303"
    descent="-784"
    alphabetic="0" />
<missing-glyph horiz-adv-x="1024" d="M128 0V1264H896V0H128ZM256 128H768V1136H256V128Z" />
<glyph unicode=" " glyph-name="space" horiz-adv-x="475" />
<glyph unicode="!" glyph-name="exclam" horiz-adv-x="198" d="M118 924Q119 913 116 897Q117 797 102 612Q104 604 104 595Q104 585 100 564T96 532Q96 511 109 497Q113 489 113 480Q113 471 108 455T102 431Q102 419 109 409Q127 357 105 327Q97 314 74 297Q24
297 17 312Q19 325 32 357Q44 384 44 402Q42 415 50 437T59 468Q59 484 44 494Q42 512 46 540Q52 573 52 584Q52 605 43 621Q45 628 45 636Q45 647 41 666T36 693Q36 706 43 718Q37 733 30 793Q25 841 7 862Q0 871 0 879Q0 884 24 921Q38 934 64 939Q87 943 109
947Q111 938 118 924ZM140 38Q129 11 75 -4Q64 12 30 34Q27 40 12 55Q0 67 0 77Q0 83 3 91Q14 94 32 112T67 130Q71 130 77 129Q81 123 118 96Q145 76 145 58Q145 49 140 38Z" />
<glyph unicode="&quot;" glyph-name="quotedbl" horiz-adv-x="365" d="M286 1050Q288 1039 284 1023Q286 1015 271 922Q274 914 274 906Q274 897 270 881T265 856Q265 841 277 827Q281 819 281 811Q281 804 276 792T271 774Q271 764 277 754Q279 747 279 740Q279
721 266 703T239 685Q220 685 207 711Q212 744 212 760Q212 769 220 795Q224 807 210 818Q210 838 215 851T221 869Q221 878 211 895Q213 903 213 909Q213 917 209 925T205 938Q205 945 211 956Q211 973 198 977Q180 981 175 989T169 1005Q169 1011 192 1047Q221
1073 264 1073Q276 1073 280 1065T286 1050ZM118 1050Q119 1039 116 1023Q117 1015 103 922Q105 914 105 906Q105 897 101 881T96 856Q96 841 109 827Q113 819 113 811Q113 804 108 792T102 774Q102 764 109 754Q111 747 111 740Q111 721 98 703T71 685Q51 685
39 711Q44 744 44 760Q44 769 52 795Q56 807 42 818Q42 838 47 851T53 869Q53 878 43 895Q45 903 45 909Q45 917 41 925T36 938Q36 945 43 956Q43 973 29 977Q11 981 6 989T1 1005Q1 1011 24 1047Q53 1073 96 1073Q108 1073 111 1065T118 1050Z" />
<glyph unicode="#" glyph-name="numbersign" horiz-adv-x="775" d="M746 658Q745 644 731 639Q657 646 576 655Q562 623 549 597L553 592Q544 584 542 578Q532 542 503 475Q564 472 552 472Q579 472 603 477L601 476H606L622 475Q626 479 662 486Q671 487 698
455Q700 456 712 440Q711 426 697 421Q623 427 539 437L535 432Q519 438 489 437Q479 416 465 371Q447 353 442 321Q438 293 435 266Q431 251 418 240Q404 204 388 129Q383 94 359 47Q307 10 286 10Q281 10 276 11Q275 18 275 25Q275 48 312 95T341 185Q363 222
399 319Q433 410 451 436Q422 435 404 440Q396 441 362 438Q349 444 337 444Q327 444 297 435Q273 428 255 435Q246 414 233 371Q215 353 210 321Q206 293 202 266Q198 251 186 240Q172 204 156 129Q151 94 126 47Q74 10 53 10Q48 10 44 11Q42 18 42 25Q42 48 79
95T108 185Q134 228 164 306Q199 401 213 429L218 435Q194 433 177 428T135 420L114 426Q83 447 79 481Q95 491 113 491Q131 491 140 485T168 479Q192 479 214 492Q228 489 242 487Q246 499 254 523Q260 539 270 555L267 574Q278 599 299 650Q291 652 283 656Q260
655 211 646Q194 641 169 639L148 644Q117 665 113 699Q129 710 147 710Q165 710 174 704T202 697Q226 697 248 710Q279 704 314 701Q315 704 357 821Q357 833 382 927Q393 932 411 953Q424 968 445 972L446 975H450Q458 976 465 980Q477 973 477 959Q453 917 429
875Q402 826 400 784Q387 756 362 698Q412 697 517 685L534 694L544 693Q547 703 590 821Q589 833 614 927Q626 932 643 953Q656 968 678 972L679 975H682Q691 976 697 980Q710 973 710 959Q686 917 662 875Q635 826 632 784Q620 757 592 691Q615 691 637 695H635L640
694H656Q660 698 696 704Q705 705 732 674Q734 675 746 658ZM533 656Q500 653 438 658Q430 660 396 657Q383 663 371 663Q360 663 345 658Q330 624 317 597L320 592Q312 584 309 578Q300 545 275 483Q337 482 468 469Q474 487 487 523Q493 539 502 555L499 574Q511
601 533 656Z" />
<glyph unicode="$" glyph-name="dollar" horiz-adv-x="600" d="M586 315Q582 301 574 279T551 214Q545 212 519 178Q436 111 434 109Q385 74 337 64Q323 46 324 8Q325 -42 322 -52Q311 -59 281 -61Q271 -50 271 -31Q271 -23 273 -8T275 14Q275 39 257 49Q188 64
122 89Q116 106 91 112Q55 121 50 124Q35 134 0 180Q6 200 12 219Q20 243 38 245Q75 174 225 104Q241 101 271 119Q275 124 280 139Q287 291 279 419Q260 465 203 469Q190 479 148 488Q110 496 96 513Q71 525 81 599Q82 611 99 624T116 652Q150 720 183 737Q209
737 236 755Q259 771 281 787Q285 794 281 861Q288 868 297 876T319 879Q320 857 322 814Q335 784 395 783Q461 782 478 765Q483 755 483 746Q483 722 440 708Q432 706 423 714T410 723Q403 722 384 725T354 728Q323 728 322 703Q322 653 322 603Q327 541 371 526Q380
528 388 528Q405 528 427 519Q454 508 464 506Q507 489 526 477Q559 457 571 429Q569 421 569 414Q569 399 582 377T596 342Q596 329 586 315ZM285 644Q285 651 281 665T276 689Q276 696 278 703Q274 720 261 720Q253 720 238 713T219 705Q215 696 184 663Q162
640 167 614Q225 564 270 566Q278 573 279 590Q279 604 279 619Q280 622 282 630T285 644ZM485 300Q488 308 488 317Q488 338 465 366Q434 403 430 411Q400 418 332 419Q329 403 317 375Q309 343 323 340Q330 258 318 237Q327 221 328 186Q328 160 328 134Q336
107 360 114Q493 196 485 300Z" />
<glyph unicode="%" glyph-name="percent" horiz-adv-x="950" d="M516 680Q507 646 465 584Q457 573 437 568Q437 553 434 552Q428 549 416 541Q410 535 408 527Q366 503 322 471Q307 469 260 455Q223 443 199 446Q159 450 135 462Q127 464 112 467Q108 481 86
482H85Q74 488 68 504Q61 524 54 531Q34 610 34 628Q34 654 45 678Q79 723 114 768Q156 819 199 841Q222 866 343 892Q350 887 367 889Q426 889 457 845Q514 817 516 680ZM760 869Q730 831 700 793Q665 749 656 707Q622 652 545 536L547 530Q538 524 534 519Q519
483 477 420Q457 390 427 326Q405 311 396 280Q388 254 380 227Q373 213 359 204Q340 170 313 99Q302 66 271 22Q219 -3 201 -3Q191 -3 183 0Q181 31 232 78Q276 118 274 162Q307 201 348 272Q398 361 416 386Q430 399 471 472Q480 488 492 502V521Q534 597 620
751Q621 763 660 852Q673 855 693 873Q709 886 730 886L732 889H735Q744 888 751 891Q762 883 760 869ZM915 250Q913 239 907 219Q904 205 894 197Q871 132 762 46Q751 43 724 27Q705 16 686 16Q662 -2 623 -2Q579 -2 537 18Q516 23 496 45Q479 64 463 84Q461 95
449 127Q439 151 439 167Q439 181 444 195Q440 225 465 254T496 304Q506 315 526 337Q534 346 559 360Q592 395 619 404Q701 443 728 441Q758 447 790 438Q808 431 845 421Q922 349 915 250ZM443 630Q460 678 432 752Q428 761 384 794Q378 798 371 812L363 811L359
814Q351 821 341 821Q323 837 292 837Q251 837 213 815Q148 791 109 701Q97 673 117 614Q121 572 172 536Q190 522 237 507Q307 484 351 526Q401 548 443 630ZM843 298Q824 319 780 355Q769 370 745 375Q716 381 709 386Q681 398 640 378Q628 372 605 375Q602 367
591 354L582 349Q569 343 563 332Q509 291 509 220Q509 199 514 178Q519 140 588 82Q595 82 599 77Q613 61 627 61Q692 42 738 71Q773 75 800 110Q812 129 836 163Q858 191 858 229Q858 260 843 298Z" />
<glyph unicode="&amp;" glyph-name="ampersand" horiz-adv-x="920" d="M906 439Q909 426 909 414Q909 346 807 286Q806 285 762 273Q736 265 725 250Q723 181 690 167Q662 104 586 63Q516 34 446 5Q410 -11 216 -32Q200 -34 174 -21T131 -7Q124 -7 116 -9Q96 9
53 41Q55 50 46 58T36 71Q39 79 39 87Q39 102 24 122T8 151Q8 159 15 167Q-9 180 0 241Q20 279 67 348Q124 387 167 448Q171 454 197 469Q217 481 217 498Q208 519 173 539T129 580Q116 601 122 683Q201 779 387 856Q421 856 481 871Q500 874 519 855Q543 830 549
827Q551 815 551 788Q550 787 493 791Q472 790 432 793Q386 796 369 796Q297 796 267 763Q236 741 205 719Q170 689 173 651Q199 615 209 605Q233 580 261 576Q320 551 410 551Q475 551 533 564Q554 561 550 532Q530 519 510 506Q485 491 467 491Q455 491 444 497Q418
501 393 501Q250 501 144 372Q127 369 126 359Q129 353 123 353T115 351Q82 282 82 228Q82 207 86 186Q117 138 148 90Q189 39 245 31V27Q258 21 284 21T322 19Q343 13 362 13Q394 13 439 33Q492 57 516 61Q548 85 610 144Q611 147 623 172Q631 189 631 203Q629
246 601 258Q572 299 483 343Q438 366 376 331Q357 309 339 240Q327 237 316 243Q299 252 298 252Q280 281 300 305Q411 399 523 402Q524 396 533 396T544 394Q568 392 607 356Q632 356 667 334T726 312Q739 312 754 317Q824 363 824 397Q829 408 829 417Q829 427
819 443T809 469Q809 477 813 486Q818 484 827 489Q832 495 839 489Q847 482 853 483Q861 475 879 462T906 439Z" />
<glyph unicode="&apos;" glyph-name="quotesingle" horiz-adv-x="200" d="M118 1050Q119 1039 116 1023Q117 1015 103 922Q105 914 105 906Q105 897 101 881T96 856Q96 841 109 827Q113 819 113 811Q113 804 108 792T102 774Q102 764 109 754Q111 747 111 740Q111
721 98 703T71 685Q51 685 39 711Q44 744 44 760Q44 769 52 795Q56 807 42 818Q42 838 47 851T53 869Q53 878 43 895Q45 903 45 909Q45 917 41 925T36 938Q36 945 43 956Q43 973 29 977Q11 981 6 989T1 1005Q1 1011 24 1047Q53 1073 96 1073Q108 1073 111 1065T118
1050Z" />
<glyph unicode="(" glyph-name="parenleft" horiz-adv-x="367" d="M363 1006Q377 979 352 942Q344 924 312 918Q292 915 260 897Q238 875 172 801Q96 714 86 584Q80 560 80 510T75 434Q85 390 100 300Q110 261 144 192V191V187Q144 181 146 178Q144 139 183 93Q188
96 188 95V92Q188 83 194 81Q245 -15 327 -33Q347 -35 357 -58Q350 -85 342 -139Q338 -150 326 -159Q275 -155 206 -102Q191 -86 160 -56Q145 -41 125 -3T88 51Q86 69 70 99T53 151Q50 172 23 255Q1 323 5 368Q-13 485 27 591Q41 628 72 701Q80 739 107 784Q149
853 153 862Q170 874 235 939Q243 954 261 969Q277 981 293 993Q305 1001 317 1010T343 1012Q347 1008 355 1008H358Q362 1008 363 1006Z" />
<glyph unicode=")" glyph-name="parenright" horiz-adv-x="379" d="M373 379Q372 349 360 292Q350 223 296 137Q300 123 295 117T280 98T253 39Q239 3 210 -9Q213 -16 212 -16H209Q199 -16 198 -23Q180 -40 150 -80Q139 -82 128 -98L124 -104Q118 -112 104 -115Q107
-122 106 -122H103Q93 -122 92 -130Q79 -156 25 -163Q23 -160 18 -155L14 -150Q1 -135 8 -120Q10 -88 56 -70Q77 -68 100 -48Q112 -37 140 -22Q231 72 272 165Q272 175 279 193T286 221Q300 256 299 327Q298 400 298 384Q298 416 301 436Q291 507 278 544Q281 555
275 567T270 587Q261 609 241 651Q241 668 225 688Q211 705 214 722Q203 733 160 810Q129 865 83 877Q59 886 33 924Q33 922 33 963Q32 986 42 995Q42 1003 47 1005T61 1013Q193 955 254 850Q259 800 293 781Q307 758 321 705T350 628Q344 606 355 582T362 540Q371
514 371 459V416Q371 393 373 379Z" />
<glyph unicode="*" glyph-name="asterisk" horiz-adv-x="403" d="M379 902Q379 899 378 894T377 885Q342 882 307 878Q269 869 260 832Q268 823 275 813Q288 794 295 787Q307 774 323 771L325 768Q329 763 333 752Q332 740 310 722Q279 699 277 696Q261 696 254
724Q246 757 231 767Q227 768 226 771Q217 793 199 793Q177 780 145 720Q139 708 133 700Q114 694 96 709T60 738Q60 746 67 752Q76 752 81 763L84 770Q97 771 100 780Q105 785 125 817Q129 824 135 831Q135 850 117 854Q114 854 108 861Q98 861 90 864Q56 875
41 868Q28 871 10 880Q15 903 19 927Q25 959 40 965Q83 921 125 921Q138 921 151 925Q169 956 157 992Q145 1027 146 1040Q167 1055 207 1061Q217 1065 222 1060T241 1048Q242 1024 223 1009Q225 998 224 987Q223 939 242 929Q273 926 305 948Q317 957 348 966Q364
956 374 910Q379 903 379 902Z" />
<glyph unicode="+" glyph-name="plus" horiz-adv-x="625" d="M540 480Q540 420 523 408Q487 402 442 409Q373 412 351 413Q351 391 355 322Q362 316 360 286Q356 242 356 241Q344 223 284 224Q284 267 295 280Q295 287 293 339Q292 380 293 413L260 414Q245 404
225 404Q210 404 188 410T160 416Q155 416 153 415Q122 417 100 408Q85 431 85 449Q85 470 106 477Q126 468 164 471T221 468Q230 468 261 464Q286 461 300 464Q303 478 300 503Q296 534 296 542Q289 560 292 599T287 657Q294 679 315 679Q333 679 356 664Q346
642 349 611Q348 608 348 604Q348 599 354 577T360 539Q360 519 350 504V471Q384 472 424 471Q477 469 484 469Q496 480 540 480Z" />
<glyph unicode="," glyph-name="comma" horiz-adv-x="170" d="M167 48Q167 44 165 -56Q156 -97 118 -179Q117 -186 96 -201L80 -214Q73 -219 69 -222Q59 -222 54 -225Q11 -230 5 -223Q3 -208 15 -198Q27 -201 39 -182L40 -181Q116 -147 111 -27Q110 -24 81 25Q59
44 37 63Q11 85 26 108Q36 122 59 143Q82 161 100 158Q115 152 137 134Q163 100 167 48Z" />
<glyph unicode="-" glyph-name="hyphen" horiz-adv-x="500" d="M417 484Q417 433 385 406Q366 404 335 409Q308 411 200 414Q185 402 169 402Q159 402 139 408T108 415Q94 415 81 408Q69 431 69 449Q69 470 86 477Q102 468 127 471T169 468Q169 468 207 463Q229
460 242 468Q279 469 352 472Q378 474 417 484Z" />
<glyph unicode="." glyph-name="period" horiz-adv-x="200" d="M180 91Q182 80 179 73Q155 19 108 17Q105 22 94 22Q88 22 88 24Q83 34 45 60Q16 79 23 102Q40 122 79 152Q105 154 131 139Q154 125 176 111Q178 104 180 91Z" />
<glyph unicode="/" glyph-name="slash" horiz-adv-x="600" d="M694 1133Q684 1073 648 1026Q636 991 620 965Q620 952 610 936Q599 917 597 909Q562 856 517 745Q489 700 446 601L413 543Q397 523 381 502Q363 478 363 453Q355 419 324 371Q289 319 281 293Q270
284 260 258T238 222Q237 193 215 158Q189 117 185 97L90 -89Q76 -100 60 -131Q38 -187 33 -197Q16 -232 -6 -254Q-13 -253 -23 -256Q-29 -257 -46 -267Q-58 -274 -72 -270Q-100 -252 -94 -225Q-74 -195 -30 -134Q7 -85 7 -60Q15 -45 30 -17T54 25Q74 50 100 107T145
188Q176 214 201 291Q210 300 223 332Q235 361 251 370Q283 498 336 541Q344 545 345 568T358 596Q371 655 406 692Q415 724 443 783Q461 811 485 877Q490 904 511 949T538 1022Q557 1060 562 1082Q568 1101 591 1136Q608 1136 628 1146Q657 1161 660 1162Q684
1160 694 1133Z" />
<glyph unicode="0" glyph-name="zero" horiz-adv-x="800" d="M772 384Q759 366 745 347Q729 325 729 306Q729 291 737 275Q730 274 730 264T729 252Q722 244 708 200Q698 166 673 161Q666 128 621 107Q571 85 561 63Q544 58 502 31Q467 9 437 6Q431 8 424 8Q410
8 385 1T348 -6Q331 -6 317 3Q236 19 202 33Q144 57 113 106Q108 126 75 153T42 209Q0 286 0 342Q0 370 9 396Q14 397 16 406T24 417Q-9 448 17 518Q37 526 44 573Q78 630 85 640Q110 676 141 697Q216 794 300 807Q316 810 343 831Q367 851 388 851Q397 851 408
848Q429 861 473 852Q496 851 526 829T580 807Q591 807 603 811Q635 784 700 731Q712 717 723 675T751 617Q752 611 769 533Q781 481 781 446Q781 413 772 384ZM680 369Q672 395 676 449T671 529Q666 536 656 592Q649 632 618 638Q614 661 591 672Q560 688 553
696Q549 720 517 736Q478 756 470 766Q316 779 244 733Q111 618 100 468Q88 431 88 392Q88 288 151 226Q159 204 178 161Q201 158 230 141Q273 117 278 115Q281 105 299 94Q411 64 464 86Q473 85 480 85Q525 85 564 128Q624 194 631 198Q686 302 680 369Z" />
<glyph unicode="1" glyph-name="one" horiz-adv-x="250" d="M177 763Q169 747 172 715T168 668Q167 662 167 656Q167 647 172 630T178 604Q178 589 165 577Q163 557 163 535Q163 505 169 451T176 369Q176 337 170 309Q177 292 177 273Q177 258 171 228T165 183Q165
166 170 150Q180 123 167 33Q132 0 73 5Q63 18 63 34Q63 43 69 67Q73 88 72 102Q66 170 90 239Q83 256 83 274Q83 300 105 344Q88 357 88 390Q88 415 88 441Q85 456 77 465Q77 478 75 480Q71 492 71 506Q71 520 76 548T82 592Q82 604 80 615Q97 685 76 724Q69 735
31 736Q-1 737 0 760Q45 783 124 848Q142 863 155 863Q182 863 182 809Q182 783 177 763Z" />
<glyph unicode="2" glyph-name="two" horiz-adv-x="680" d="M677 97Q665 75 654 52Q637 26 610 29Q571 -8 534 0Q501 14 430 16Q323 19 318 20Q296 14 242 26Q173 17 153 34Q127 24 67 10Q12 4 0 15Q4 32 27 48T56 78Q107 104 109 143Q168 187 197 243Q205 252
220 266Q235 289 243 287Q254 313 285 361Q289 390 320 438Q349 481 378 524Q411 576 411 624Q411 648 404 674Q401 694 373 718T342 762Q334 759 304 767Q290 770 244 786Q207 800 183 800Q158 800 136 787Q132 786 105 769Q85 756 69 758Q63 762 57 766T54 781Q62
802 90 818Q113 831 136 844Q180 876 241 876Q268 876 291 868Q297 859 313 859Q326 859 339 859Q351 856 354 844Q363 846 371 846Q405 846 440 816Q489 772 498 768Q514 739 519 671Q505 658 497 621T475 571Q429 492 350 381Q284 289 218 196Q216 186 204 168T191
138Q191 130 195 122Q220 122 274 112Q323 103 354 104T449 102Q467 100 479 94Q484 101 497 100Q517 100 519 100V97Q615 80 651 112Q661 116 667 109Q677 97 677 97Z" />
<glyph unicode="3" glyph-name="three" horiz-adv-x="575" d="M562 459Q570 441 554 419Q559 383 559 351Q559 231 495 188Q474 133 422 72Q375 21 328 -31Q304 -41 242 -85Q190 -122 150 -130Q115 -177 56 -176Q53 -169 34 -163T14 -148Q14 -143 17 -136Q68 -126
125 -97Q169 -93 216 -64Q257 -38 298 -11Q300 0 328 19Q343 29 357 59T383 99Q402 128 421 156Q444 190 444 225Q444 234 443 244Q468 299 442 362Q440 368 437 409Q434 437 420 451Q411 449 404 449Q386 449 368 467Q340 497 340 497Q323 497 283 502T222 507Q177
507 151 489Q125 467 64 460Q62 466 62 471Q62 489 89 503T120 535Q178 549 215 653Q263 716 279 767Q282 792 254 795Q232 798 210 799T149 810T92 821Q70 821 52 812Q45 813 34 809Q30 804 24 810T14 816Q23 836 56 851Q105 875 111 879L211 874Q232 882 272
880Q275 880 291 877T312 874Q320 876 396 876Q431 876 430 860Q429 847 421 823Q403 782 351 715Q297 645 280 609Q300 598 364 586Q419 576 431 560Q443 563 456 556T478 549Q503 530 528 510Q557 486 562 459Z" />
<glyph unicode="4" glyph-name="four" horiz-adv-x="855" d="M856 513Q865 507 859 498Q855 491 850 483Q830 478 808 444Q789 415 759 418Q753 411 747 411Q743 411 733 416T715 420Q699 427 680 427Q667 427 633 421Q603 415 583 417Q552 410 547 388Q550 362
544 314Q538 259 538 239Q538 195 554 167Q552 153 555 124Q559 88 559 77Q559 28 522 20Q477 -1 446 -22Q437 -17 437 11Q443 11 443 18T445 28Q450 59 471 116Q466 196 480 352Q482 369 469 381Q452 397 450 405Q468 405 341 410Q275 413 234 401Q208 402 164
418Q144 414 108 401Q67 414 2 401Q0 409 0 416Q0 439 31 456Q70 479 76 487Q169 540 346 667Q349 679 369 698T390 734Q405 760 449 793Q483 832 501 865Q509 864 509 868T518 874T527 882Q528 882 554 856Q550 842 557 820Q563 800 557 788Q553 779 553 770Q553
762 557 748T561 728Q561 718 555 709Q555 718 556 603Q557 537 543 499Q554 485 587 470Q595 476 663 480Q674 480 682 483Q694 481 705 481Q732 481 779 497T856 513ZM490 617Q476 626 474 661T460 705Q446 696 416 682Q368 645 273 572Q249 555 225 537Q196
516 196 490Q207 482 234 481T273 475Q404 461 452 473Q484 492 484 529Q475 540 475 553Q475 562 483 583T490 617Z" />
<glyph unicode="5" glyph-name="five" horiz-adv-x="600" d="M585 894Q589 886 589 878Q589 864 572 845T554 812Q509 767 444 794Q389 796 283 790Q244 785 212 705Q211 702 203 688Q197 680 201 670Q246 640 368 638Q393 633 420 627T462 605Q461 586 486 576Q495
581 504 581Q518 581 533 565Q553 544 559 541Q594 494 570 370Q560 341 526 294Q520 270 495 234T464 176Q464 176 412 109Q380 69 346 58Q330 35 291 -4T235 -66V-73Q153 -134 74 -179Q44 -179 0 -158Q1 -138 23 -134T65 -126Q81 -125 108 -104T156 -84Q177 -53
243 -2Q305 46 326 81Q412 145 426 223Q448 250 461 296Q470 303 470 326T472 355Q474 379 476 403Q477 434 460 443Q433 459 398 506Q345 530 322 538Q279 553 239 554Q220 584 191 569Q190 567 152 563Q143 562 139 558Q86 508 44 516Q42 518 42 530Q75 567 109
604Q145 648 159 690Q182 711 211 814Q218 818 244 844Q263 864 282 864Q288 868 305 863Q322 859 333 864Q378 863 465 874Q468 875 512 878Q543 880 553 894Q563 893 585 894Z" />
<glyph unicode="6" glyph-name="six" horiz-adv-x="625" d="M626 1027Q620 1008 587 995T547 962Q494 929 434 865Q386 810 337 755Q255 667 230 611Q222 597 178 531Q166 531 161 510Q146 492 145 443T126 375Q105 242 105 236Q106 207 125 172Q155 115 156 113Q222
48 307 48Q327 48 348 52Q371 72 417 87Q442 110 466 133Q493 160 497 190Q508 200 511 219Q514 233 511 256Q509 287 509 291Q493 296 488 326Q483 353 465 356T427 389T390 419Q385 419 378 416Q369 415 357 420Q319 429 235 420Q238 419 209 415Q189 413 189
424Q189 429 193 437Q271 509 360 509Q395 509 428 496Q438 490 476 487Q492 486 504 476Q509 459 567 411Q589 300 589 288Q589 268 585 249Q556 199 482 116Q446 69 339 8Q325 1 262 -13Q211 -25 182 -17Q168 -11 138 -5Q130 -3 89 15Q83 31 41 69Q9 99 15 135Q-4
167 0 188Q15 206 15 247Q15 279 15 311Q19 342 52 392T90 472Q105 482 118 506Q137 541 140 546Q151 572 195 621Q236 667 245 702H251Q329 805 503 980Q518 1008 552 1030Q582 1047 612 1065Q639 1053 626 1027Z" />
<glyph unicode="7" glyph-name="seven" horiz-adv-x="700" d="M708 880Q708 872 699 864T688 847Q647 806 635 747H630Q603 730 580 682T532 617Q531 597 515 573Q495 542 492 535Q479 503 443 449Q404 392 392 364Q353 298 283 162Q243 128 231 77Q220 77 215
62T205 44Q197 8 176 -42Q144 -115 141 -123Q132 -217 15 -251Q-1 -255 -3 -241Q-6 -229 0 -218Q8 -202 48 -160Q81 -126 88 -94Q94 -66 151 14Q160 31 176 69Q187 71 193 87Q202 108 207 113Q208 116 208 130T222 142Q234 158 249 191Q275 230 316 316Q350 374
421 487Q434 522 473 587Q482 612 509 659Q516 669 517 697Q519 713 532 737Q527 768 497 764Q465 765 434 766T376 781Q370 783 335 770Q206 776 149 742Q127 729 102 736Q99 775 140 803Q201 846 207 854Q295 878 331 854Q342 857 352 857Q366 857 390 851T427
845Q441 845 455 850Q534 878 596 840Q626 856 684 891Q709 888 708 880Z" />
<glyph unicode="8" glyph-name="eight" horiz-adv-x="600" d="M588 331Q588 304 588 277Q586 247 571 234Q563 197 515 161Q460 121 448 95Q440 92 393 57Q307 -6 224 -6Q204 -6 183 -2Q175 6 154 6Q138 6 122 6Q110 8 103 14Q26 56 12 109Q0 135 0 170Q0 235
35 277Q38 287 56 302T76 332Q91 403 175 442Q196 439 217 469Q213 488 187 506T155 542Q146 559 134 597Q132 623 155 642Q149 691 195 730Q262 787 269 798Q314 845 386 861Q418 853 487 846Q511 836 532 808Q562 767 569 761Q572 741 572 723Q572 624 509 588Q490
545 452 516Q488 494 541 431Q560 421 564 382T588 331ZM481 693Q455 740 414 760Q410 762 396 774Q386 783 376 783Q371 783 366 781Q339 773 287 754Q253 744 225 650Q241 622 264 562Q339 537 364 537Q383 537 402 543Q411 542 423 557Q438 576 440 578Q469
588 476 625Q479 659 481 693ZM506 231Q491 243 489 282Q487 325 480 337Q462 346 452 377Q440 414 433 422Q433 422 401 426Q377 444 334 447Q292 450 261 436Q194 405 173 391Q127 360 115 315Q95 299 89 252Q81 191 78 181Q105 135 202 91Q216 71 250 71Q267
71 299 77T342 83Q385 100 387 101Q411 113 422 133Q456 155 468 184Q464 201 484 210T506 231Z" />
<glyph unicode="9" glyph-name="nine" horiz-adv-x="670" d="M671 637Q655 614 651 546Q647 485 622 460Q610 441 593 399Q566 342 499 239Q500 228 491 218Q480 205 478 201Q472 185 439 153Q410 127 407 100Q373 71 317 -3Q303 -21 271 -50Q259 -74 212 -110T156
-177Q134 -182 99 -210T36 -240Q11 -229 0 -210Q53 -186 147 -118Q166 -106 185 -95Q206 -80 212 -59Q228 -55 242 -33T270 -6Q275 7 294 20Q340 79 426 197Q434 197 438 207T446 218Q458 254 490 292Q497 320 519 372Q519 394 532 427T546 481Q546 490 545 498Q549
512 557 534Q563 555 557 584Q550 620 550 634Q551 644 535 656T523 683Q506 690 483 726Q462 758 442 758Q432 758 420 752Q420 758 411 758T400 760Q310 774 294 748Q177 700 151 597Q149 487 248 421Q257 420 274 409T303 398Q338 396 402 386Q429 400 451 392Q455
365 427 350Q404 337 381 325Q344 314 289 315Q89 317 82 486Q79 500 79 515Q79 591 138 650Q147 659 161 674Q210 728 243 756Q298 792 408 860Q422 863 435 863Q457 863 492 850T547 834Q549 833 604 797Q638 775 638 740Q655 726 660 692Q666 648 671 637Z"
/>
<glyph unicode=":" glyph-name="colon" horiz-adv-x="200" d="M178 391Q145 337 103 341Q97 348 52 375Q20 394 20 422Q39 448 70 471Q76 470 82 474L85 476Q87 477 89 475Q119 464 172 431Q173 426 176 413T178 391ZM162 100Q164 89 148 54Q138 53 115 33Q101
21 88 35Q61 49 34 63Q5 83 5 113Q40 161 77 161Q86 161 95 158Q112 147 122 142Q143 146 152 123L155 115Q157 110 162 100Z" />
<glyph unicode=";" glyph-name="semicolon" horiz-adv-x="200" d="M158 386Q112 337 82 341Q53 355 9 400Q4 402 4 408Q5 429 5 422Q48 477 85 471Q119 455 123 456Q166 420 158 386ZM186 28Q189 -3 177 -81Q175 -92 175 -96Q157 -125 135 -172Q128 -185 96 -204Q58
-227 29 -228Q19 -210 20 -207Q53 -182 86 -157Q123 -128 125 -88Q130 -67 125 -41Q116 3 116 5Q82 56 36 74Q33 108 31 98Q79 166 118 163Q121 162 132 151T153 138Q155 130 174 91Q187 63 187 42Q187 35 186 28Z" />
<glyph unicode="&lt;" glyph-name="less" horiz-adv-x="500" d="M420 204Q419 190 378 151Q341 148 353 148Q346 148 338 151Q312 176 272 229Q254 263 203 306T136 379Q117 393 80 420Q79 452 91 453Q93 451 109 455T127 459Q140 459 166 482Q170 493 197 508Q220
521 218 543Q240 558 263 601T305 660Q311 661 324 671T343 682Q350 682 355 678V674Q356 653 330 627Q302 598 298 581Q270 562 235 518Q193 465 177 450Q177 430 197 416Q220 398 224 388Q251 358 310 305Q311 288 331 277Q348 270 365 262Q387 246 420 204Z"
/>
<glyph unicode="=" glyph-name="equal" horiz-adv-x="625" d="M540 580Q540 520 523 508Q487 502 442 509Q366 513 260 514Q245 504 225 504Q210 504 188 510T160 516Q155 516 153 515Q122 518 100 508Q85 531 85 549Q85 570 106 577Q126 568 164 571T221 568Q221
568 268 563Q297 561 313 569Q321 569 484 569Q496 580 540 580ZM540 393Q540 333 523 321Q487 315 442 322Q366 326 260 327Q245 317 225 317Q210 317 188 323T160 329Q155 329 153 328Q122 331 100 321Q85 344 85 362Q85 383 106 390Q126 381 164 384T221 381Q221
381 268 376Q297 374 313 382Q321 382 484 382Q496 393 540 393Z" />
<glyph unicode="&gt;" glyph-name="greater" horiz-adv-x="500" d="M420 410Q421 377 409 377Q407 379 391 375T373 371Q360 371 334 348Q330 337 303 321Q280 309 282 287Q260 272 237 228T195 170Q189 168 176 158T157 148Q150 148 145 152V156Q144 177 171
204T202 249Q230 267 265 312Q307 365 323 380Q323 399 303 414Q280 431 276 442Q249 471 190 524Q189 542 171 551T135 567Q113 584 80 626Q81 640 122 678Q159 682 147 682Q154 682 162 678Q188 654 228 601Q246 567 297 524T364 451Q383 437 420 410Z" />
<glyph unicode="?" glyph-name="question" horiz-adv-x="566" d="M545 740Q547 733 547 728Q547 714 527 699T507 670Q483 646 459 622Q430 595 402 586Q390 587 386 572Q382 554 375 552Q370 541 342 513Q320 490 320 471Q320 458 329 442Q329 440 333 410Q336
390 331 377Q267 374 281 374Q250 375 246 400Q244 402 240 442Q276 489 311 536Q355 591 402 613Q422 620 430 648Q439 681 448 689Q451 736 397 775Q390 781 351 789Q321 796 312 817Q311 816 186 805Q111 798 94 747Q101 745 101 735Q100 719 101 718Q54 663
26 663Q19 663 10 666T0 684Q0 696 0 709Q103 857 271 861Q271 867 277 867Q290 866 289 866Q288 861 304 861Q410 883 460 832Q506 832 545 740ZM368 66Q352 28 309 7Q293 15 259 32Q256 43 237 64Q221 82 223 97Q239 109 254 121Q273 135 291 135Q298 135 306
133Q313 123 341 102Q364 84 368 66Z" />
<glyph unicode="@" glyph-name="at" horiz-adv-x="1050" d="M985 501Q984 460 953 411T921 338Q921 325 927 312Q919 295 922 288Q917 283 886 228Q864 191 832 185Q829 174 814 174Q790 174 745 196Q706 215 693 227Q694 260 664 272Q540 233 407 230Q380 231
334 246Q314 246 299 267Q288 285 276 303Q276 350 284 358Q296 401 346 432Q389 457 433 481Q455 480 484 500Q521 515 643 526Q662 526 695 541Q699 551 695 571Q692 589 701 601L702 615Q696 619 660 660Q635 688 605 688Q598 688 590 687Q569 695 526 691Q513
678 473 661Q438 646 426 626Q418 628 413 621Q383 621 356 645L357 657Q417 684 437 692Q483 709 525 713Q554 723 589 723Q629 723 711 702Q706 679 734 670T762 639Q762 623 764 589Q771 580 773 531Q773 519 776 511Q755 475 770 458Q766 434 764 384T757 310Q768
282 769 267Q812 259 829 270Q848 300 868 330Q883 356 883 397Q884 421 882 470T881 544Q881 587 863 646Q842 718 811 726Q804 751 777 764Q741 781 734 788Q727 817 689 836Q642 860 632 872Q585 876 547 876Q226 876 167 527Q160 499 152 439Q151 337 227 246Q237
218 260 170Q288 166 322 148Q377 119 379 118Q406 74 544 74Q585 74 610 84L625 83Q634 82 675 88T721 96Q723 93 724 90Q723 84 718 76Q700 70 643 38Q604 15 559 15Q544 15 514 8T469 0Q451 0 435 10Q346 26 302 42Q221 71 197 120Q181 152 148 178T113 235Q64
322 65 383Q66 453 106 463Q77 489 77 529Q78 551 86 574Q112 587 121 641Q269 873 423 899Q443 902 459 913Q514 948 529 948Q540 948 554 945Q568 953 595 953Q632 953 683 927T763 900Q773 900 784 902Q823 875 895 816Q907 804 919 757T952 689Q952 687 973
596Q985 539 985 501ZM691 465Q691 465 657 477Q633 475 588 483Q558 492 545 481Q511 483 471 463Q406 430 406 430Q360 383 360 369Q360 360 365 351Q362 332 363 296Q393 283 453 259Q497 260 574 287Q616 284 679 347L691 465Z" />
<glyph unicode="A" glyph-name="A" horiz-adv-x="990" d="M930 9Q929 5 907 -11Q891 -13 887 1T877 31T801 185Q799 193 788 213Q779 230 779 244Q771 251 751 289Q735 318 712 321Q698 306 678 306Q669 306 646 312T610 318Q598 318 588 315Q536 307 409 304Q291
301 232 290Q210 286 197 259Q182 226 170 219Q170 207 167 208Q135 152 82 31Q51 -8 23 -3Q8 0 0 12Q1 36 28 66T61 115Q82 120 92 149Q103 182 115 189Q123 203 132 237Q147 248 160 280Q175 317 184 328Q212 365 255 448Q268 458 272 489T290 532Q303 537 305
565T322 599Q324 627 353 681Q379 730 378 768Q379 777 397 788T416 808Q416 812 412 817Q414 842 441 862Q476 889 483 901Q489 902 494 902Q511 902 522 877Q537 844 544 838Q586 769 595 712Q607 705 615 684Q624 660 631 653Q643 616 684 550Q693 535 737 450V439Q770
383 841 274Q839 267 839 261Q839 243 855 227Q877 204 880 198Q885 175 928 129Q967 86 967 62Q967 35 930 9ZM691 382Q694 391 688 398Q678 409 678 409Q680 416 680 422Q680 444 652 467T623 512Q621 513 570 594Q573 618 553 640Q523 674 522 676Q510 700 499
723Q484 750 462 758Q453 748 439 726Q409 691 382 627Q345 541 334 522Q319 510 310 478Q299 442 291 431Q283 426 280 406T272 381Q272 381 281 358Q347 348 479 356Q494 349 524 353Q560 359 575 356Q588 365 617 365Q658 365 662 365Q682 368 691 382Z" />
<glyph unicode="B" glyph-name="B" horiz-adv-x="890" d="M839 284Q831 223 780 170Q771 173 766 167T757 155Q753 113 692 77Q678 60 635 44T577 9Q514 -10 474 -14Q410 -22 386 -12Q373 -17 301 -9Q290 -8 269 4T230 14Q210 1 169 20Q158 32 131 32Q110 32 90
32Q74 34 65 43Q57 43 40 34T16 25Q6 25 0 34Q-3 59 20 69Q58 87 59 87Q94 118 91 155Q97 365 96 384Q99 397 111 414Q99 514 99 517Q101 536 91 568Q81 605 81 624Q80 626 71 800Q85 819 69 823Q65 834 44 836T23 851Q24 855 25 859Q40 861 68 879Q93 896 113
897Q158 897 250 894Q279 893 298 889Q304 887 309 887Q315 887 325 891T340 895Q347 895 353 889Q398 892 477 878Q512 873 548 868Q588 861 610 843Q622 811 589 777Q570 766 564 743Q526 718 455 663Q454 647 470 638Q483 631 496 625Q536 625 549 598Q555 596
596 596Q625 597 632 578Q693 547 702 542Q741 520 764 493Q760 465 792 448T824 408Q821 397 821 388Q821 371 833 346T845 308Q845 296 839 284ZM469 795Q463 806 443 814T416 833Q407 836 353 835Q277 851 201 835Q176 836 172 811Q172 788 172 765Q154 742
157 723Q173 715 178 689Q185 658 192 650Q203 648 214 648Q232 648 261 654T307 661Q319 661 331 659Q343 676 376 685Q414 695 425 703Q472 741 472 775Q472 785 469 795ZM719 266Q711 320 703 373Q691 432 655 460Q640 463 616 481T575 504Q570 506 491 534Q438
552 413 577Q343 572 302 585Q271 591 211 595Q182 592 183 554Q184 507 173 496Q181 441 185 320Q176 306 182 279Q182 267 176 267Q167 213 191 206Q189 165 200 138Q208 112 177 90Q183 72 221 61Q257 56 327 44Q346 35 372 35Q387 35 415 39T458 43Q475 43
489 38Q497 37 505 37Q538 37 573 60Q602 79 630 99T676 164Q691 201 706 239Q708 250 719 266Z" />
<glyph unicode="C" glyph-name="C" horiz-adv-x="900" d="M922 117Q928 94 902 50Q840 38 790 14Q774 16 757 16Q721 16 659 2T565 -13Q548 -13 531 -10Q486 -14 449 21Q438 23 424 16T404 9Q397 9 390 12Q244 38 148 144Q128 147 120 180T91 215Q74 230 51 270Q30
283 20 320Q7 366 0 377Q0 386 -3 429Q-7 466 -4 487Q0 517 17 532Q17 560 34 593Q59 644 60 647Q64 657 84 672T104 703Q132 714 183 761Q228 803 266 809Q321 832 376 854Q441 878 499 879Q521 879 570 885T643 891Q682 891 711 880Q737 875 785 855Q788 850
775 817Q749 796 731 800Q715 803 672 823Q635 840 610 840Q600 840 590 838Q563 845 516 842Q459 838 440 839Q419 829 367 820Q332 797 251 769Q238 745 194 711T134 653Q94 586 97 459Q102 456 97 453Q91 449 94 444Q108 435 109 408Q109 386 109 365Q112 343
129 335Q142 325 152 288Q162 255 180 247Q198 197 301 121Q306 121 318 117T340 113Q371 91 445 69Q447 68 483 57Q530 43 599 44Q658 47 716 49Q751 54 818 85Q881 115 922 117Z" />
<glyph unicode="D" glyph-name="D" horiz-adv-x="1010" d="M979 496Q980 473 973 431Q928 385 928 367Q928 361 929 354Q919 330 885 306Q847 279 836 262Q809 221 751 184Q666 131 656 123Q627 118 564 78Q509 43 462 46Q419 24 342 16Q277 12 212 7Q176 21 150
13Q132 -11 59 -2Q50 4 30 9T0 21Q3 31 15 34Q31 39 36 42Q59 46 71 68Q76 85 82 118Q79 166 94 251Q68 340 96 404Q83 418 83 437Q83 447 88 467T93 497Q93 511 87 522Q73 539 74 578Q74 628 71 640Q72 658 63 692T53 740Q53 754 59 766Q65 823 29 837Q10 851
20 857Q34 864 70 868T121 881Q163 888 229 882Q283 877 338 872Q375 864 445 856Q476 855 531 840T618 824Q626 812 645 815Q677 771 727 777Q801 747 833 731Q890 702 928 666Q937 657 942 630T964 595Q962 574 971 542T979 496ZM858 521Q857 526 849 539T840
563Q832 590 795 634Q773 670 715 690Q637 717 622 726Q597 743 543 754Q483 766 462 776Q435 776 385 796Q339 814 304 811Q295 810 259 813Q225 816 208 813Q182 808 174 790Q175 777 165 760Q163 745 172 725Q170 648 154 617Q171 609 172 584Q173 563 173 543Q174
529 181 522Q175 506 175 474Q176 425 175 422Q182 411 182 397Q182 393 176 362Q172 340 178 325Q183 316 183 308Q183 299 174 287T164 265Q164 259 167 251Q184 236 183 197Q183 131 182 136Q195 104 177 60Q250 49 295 49Q367 49 403 73Q539 106 615 156Q638
156 660 178Q688 206 700 211Q714 235 748 269T796 324Q805 324 807 335Q811 354 811 354Q831 378 841 434Q852 505 858 521Z" />
<glyph unicode="E" glyph-name="E" horiz-adv-x="805" d="M821 87Q830 82 830 77Q830 72 818 65T804 51Q789 9 697 7Q608 17 442 15Q427 21 408 17Q380 12 377 12Q366 12 356 18Q247 2 129 17Q91 -1 47 26Q38 31 38 38Q38 42 43 51T49 66Q50 91 64 131Q57 201
69 282Q50 331 73 434Q73 451 54 470Q54 524 53 579Q51 641 36 676Q38 708 27 724Q27 731 35 744T44 764Q43 769 42 773Q30 779 25 808T0 841V852Q50 879 93 879Q116 879 135 871Q171 866 359 851Q388 845 440 851Q489 856 518 848Q534 856 591 869Q594 868 604
872T619 875Q625 874 624 863Q609 819 548 808Q495 803 442 799Q415 806 353 815Q331 808 282 807Q242 804 162 812Q160 809 150 802T140 790Q141 786 145 783Q147 774 147 763Q147 751 144 730T140 699Q140 675 156 661Q174 654 221 652T287 641Q293 642 422 639Q423
636 434 642Q463 641 525 648Q546 645 569 645Q592 645 648 651Q699 657 731 655Q737 668 775 661Q773 644 754 630Q730 612 725 605Q665 602 560 610Q542 614 517 610Q486 604 479 604Q462 604 449 612Q434 616 434 616Q434 616 396 609Q354 616 281 603Q269 605
258 605Q242 605 206 596Q174 589 151 591Q144 585 145 563T136 535Q144 517 145 485Q147 443 149 432Q161 410 151 361Q144 323 155 308Q150 303 148 285T141 261Q161 213 171 111Q205 82 274 73Q334 69 394 65Q551 54 644 66Q654 66 821 87Z" />
<glyph unicode="F" glyph-name="F" horiz-adv-x="655" d="M699 667Q699 646 679 631Q663 620 646 608Q627 607 596 611Q522 618 366 625Q350 613 330 613Q319 613 296 618T262 623Q245 623 230 615Q235 616 170 617Q131 617 121 595Q110 554 114 469T107 341Q113
329 117 239Q118 224 120 212Q125 190 130 168Q135 142 126 124Q123 113 129 100T133 76Q130 54 99 43Q61 31 53 21Q45 24 39 18T24 14Q14 17 14 30Q15 54 15 52Q17 68 30 91Q30 100 26 118Q20 143 25 182Q33 231 32 250Q42 304 33 406Q38 416 38 426Q38 437 29
455T20 483Q20 494 27 507T34 537Q34 554 26 583T17 627Q17 647 28 665Q18 678 18 700Q18 708 19 723T21 747Q21 776 3 789Q-5 806 0 839Q72 880 164 865Q181 852 224 852Q274 851 288 846Q290 845 362 840Q414 836 486 844Q546 851 606 858Q610 832 572 808Q547
798 503 797Q475 796 423 799Q368 802 351 802Q341 808 329 808Q321 808 306 805T282 801Q267 801 257 810Q246 812 231 807T209 801Q201 801 194 806Q131 816 120 789Q107 738 116 707Q117 706 123 680Q128 663 142 663Q168 657 195 651Q226 645 248 654Q259 648
272 648Q275 648 306 654Q327 658 342 651Q342 651 379 646Q402 643 415 651Q478 652 602 655Q660 657 699 667Z" />
<glyph unicode="G" glyph-name="G" horiz-adv-x="895" d="M873 111Q873 87 874 62Q874 31 850 29Q798 24 788 26Q771 25 744 11Q728 13 712 13Q684 13 623 4Q567 -4 532 -2Q527 -10 509 -10T485 -16Q454 -12 397 -5Q376 -15 364 -5Q353 -7 343 -7Q316 -7 276 15T206
35Q197 60 155 76T105 121Q47 207 51 249Q38 254 16 291Q16 309 8 341T0 388Q0 406 7 421Q2 428 2 437Q2 445 8 465T13 497Q19 534 47 568Q67 601 105 668Q131 700 156 733Q190 771 226 778Q302 824 373 843Q396 839 429 846Q468 855 482 855Q512 858 565 870Q600
864 668 847Q668 853 677 853T688 855Q694 854 723 843Q744 834 762 836Q764 831 764 827Q764 820 754 814Q740 806 738 803Q731 801 709 789Q691 779 679 779Q667 779 656 788Q624 805 556 823Q421 824 382 808Q252 753 170 662Q171 641 153 612T133 565Q122 541
114 481Q106 425 91 401Q93 393 107 372Q119 355 116 338Q129 319 148 256Q157 235 167 213T199 183Q211 141 235 136Q291 101 412 40Q455 31 547 34Q565 35 615 45Q660 54 688 52Q697 62 726 70T765 94Q768 110 768 129Q768 145 765 176T761 223Q761 245 767 264Q759
291 737 344Q711 343 663 350Q658 353 634 352Q614 351 614 360Q614 366 619 375Q630 389 661 388Q699 387 707 390Q829 398 846 397Q864 380 864 343Q864 326 860 298Q856 266 855 256Q866 212 866 203Q866 180 847 164Q845 158 845 154Q845 143 857 132T873 111Z"
/>
<glyph unicode="H" glyph-name="H" horiz-adv-x="900" d="M834 616Q817 595 818 549Q820 513 822 477Q828 473 822 470Q815 466 820 460Q817 443 817 425Q817 404 821 366T826 310Q826 283 820 260Q838 209 834 194T834 146Q839 109 839 95Q839 53 809 39Q777
1 740 1Q733 1 727 3Q724 11 724 20Q724 32 732 58T739 100Q739 104 747 152Q753 183 743 203Q760 225 757 264Q754 321 755 329Q751 343 751 366Q751 377 752 398T753 430Q753 484 723 495Q711 493 696 483Q706 482 642 479Q608 478 590 488Q467 486 222 493Q216
500 212 493Q207 486 201 490Q178 490 154 490Q127 488 119 472Q122 427 113 346Q118 340 115 322Q110 300 113 289Q137 244 123 119Q129 110 129 90Q129 60 129 57Q64 0 20 3Q14 13 14 24Q14 39 26 65Q39 95 41 106Q47 115 40 124T37 142Q33 327 46 369Q35 384
36 419Q37 458 31 472Q18 511 33 533Q27 559 15 607Q16 609 28 631Q36 646 35 661Q8 678 6 730Q1 809 0 813Q35 853 108 863Q115 849 118 843Q118 833 114 823Q110 804 110 782Q110 765 113 733T117 685Q117 653 106 628Q106 601 121 558Q140 550 187 548T254 538Q283
525 392 538Q395 535 398 532Q406 532 407 529Q431 526 456 526Q492 526 558 535T661 545Q686 545 710 542Q741 554 743 608Q741 648 739 689Q719 707 719 756Q720 840 721 830Q745 842 795 860Q800 861 804 861Q814 861 818 847Q824 828 827 825Q816 765 813 695Q812
693 834 616Z" />
<glyph unicode="I" glyph-name="I" horiz-adv-x="210" d="M141 847Q138 827 131 791Q126 764 131 762Q142 705 123 665Q121 649 126 626Q132 599 132 590Q132 575 123 562Q125 536 121 491Q115 471 121 438T121 388Q118 370 118 349Q118 333 121 301T125 251Q125
233 122 217Q118 214 118 212Q118 210 122 207T126 201Q126 199 125 196Q123 179 126 146Q130 107 130 93Q130 30 85 13Q56 -2 26 -4Q17 0 16 11Q16 21 16 31Q19 34 22 77Q23 85 26 90Q30 119 51 169Q43 171 40 202Q37 244 51 316Q51 323 45 329T39 343Q40 445
35 631Q33 643 24 661Q25 684 20 721Q14 762 14 778Q14 804 23 827Q45 824 76 845T131 861Q133 855 141 847Z" />
<glyph unicode="J" glyph-name="J" horiz-adv-x="690" d="M611 523Q616 464 609 353Q607 345 605 285Q604 245 586 229Q589 216 589 204Q589 153 536 108Q536 106 492 37Q396 -26 316 -23Q298 -29 281 -29Q256 -29 212 -10T141 10Q132 10 122 9Q92 21 36 48Q-2
73 0 174Q13 190 29 180Q43 156 42 151Q84 98 177 48Q211 54 245 27Q364 18 407 51Q450 65 494 163Q494 163 527 358Q526 372 526 386Q526 402 538 405Q541 406 544 411Q548 423 535 426Q527 429 524 444Q522 455 520 466Q524 523 505 628Q499 642 505 662Q512
685 507 699Q488 743 499 756Q501 767 487 778T473 799Q473 803 475 809Q508 831 578 870Q600 871 604 853Q606 845 604 814Q603 788 610 780Q614 768 608 753T605 727Q620 702 620 670Q620 652 614 615T608 556Q608 539 611 523Z" />
<glyph unicode="K" glyph-name="K" horiz-adv-x="860" d="M848 33Q774 -12 710 -12Q679 24 657 23Q587 69 456 172Q409 210 311 281Q312 291 304 296Q292 302 290 304Q281 302 272 302Q243 302 203 333T134 363Q123 331 128 325Q130 317 130 310Q130 300 126 284T121
260Q121 252 125 239T130 219Q130 209 122 184Q115 163 118 150Q139 113 129 36Q109 16 20 -6Q10 8 11 24Q18 26 18 39T20 56Q32 67 33 109Q35 148 53 159Q55 165 55 171Q55 181 49 197T42 220Q42 227 46 232Q36 366 58 434Q43 514 60 548Q41 570 32 669Q18 685
17 718Q17 745 17 772Q15 799 0 812Q28 842 67 857Q83 859 105 872Q132 857 126 842Q119 834 119 823Q119 815 125 798T131 771Q131 761 127 752Q108 733 112 718Q126 706 130 679Q132 661 130 629Q127 592 127 584Q114 578 121 542Q133 506 131 463Q127 451 140
449Q156 452 190 476Q220 497 245 498Q278 518 428 637Q464 676 536 749Q538 797 604 823Q609 823 618 827Q627 827 640 835T664 843Q669 843 675 842Q672 818 640 793T604 747Q587 745 587 732Q559 724 530 680T469 629Q447 602 356 542Q282 492 260 437Q278 416
331 380Q377 349 393 322Q441 300 509 248Q596 182 621 167Q649 124 686 114Q687 113 702 81Q712 60 733 64Q733 71 742 71Q755 70 756 70Q771 47 836 56Q836 51 843 46T848 33Z" />
<glyph unicode="L" glyph-name="L" horiz-adv-x="665" d="M685 62Q678 22 597 -2Q619 -2 340 2Q330 -3 319 -3Q309 -3 290 2T261 8Q247 8 235 1Q214 -3 159 2Q108 7 81 -2H2Q0 2 0 6Q0 14 10 27T21 51Q21 55 20 59Q37 84 38 134Q38 174 38 214Q40 243 49 261Q52
268 52 277Q52 284 49 297T45 316Q45 326 51 334Q41 363 59 469Q43 484 43 506Q43 518 49 541T55 576Q55 598 35 610Q36 659 31 757Q27 794 9 814Q8 829 53 854Q72 871 100 871Q125 871 129 850Q124 803 127 710T127 573Q109 556 113 543Q127 521 130 484Q133 459
130 415Q128 364 128 352Q115 345 122 305Q122 304 125 301Q130 272 126 226Q122 166 123 148Q126 143 128 89Q129 77 132 70Q135 58 154 56T178 49Q183 55 196 55Q216 55 217 55Q273 39 268 39Q279 39 287 46Q347 42 455 56Q466 55 484 46T512 35Q520 33 534 44T556
56Q582 54 619 63Q661 73 679 74Q677 70 681 67T685 62Z" />
<glyph unicode="M" glyph-name="M" horiz-adv-x="1035" d="M965 63Q958 22 930 10Q912 6 880 -4Q873 22 873 54Q873 63 879 136Q883 187 877 223T870 320V398Q869 465 861 505Q855 537 831 595Q799 562 762 474T693 351Q673 316 638 241Q621 222 589 167Q560 117
532 94Q530 77 514 51Q496 22 493 13T476 1T459 -6Q442 5 421 36Q398 71 385 82Q374 104 359 150Q343 162 338 202T315 255Q278 316 216 446Q208 507 175 519Q163 553 156 566Q142 590 122 599Q108 588 106 560Q106 538 106 516Q105 502 98 493Q96 492 93 449Q104
433 93 355Q93 323 96 317Q103 239 96 166Q97 152 88 134Q82 131 82 122Q82 108 82 107Q94 101 91 46Q66 32 21 -1Q-5 -1 0 39H2Q10 73 12 175Q14 264 31 304Q19 349 23 426Q27 520 24 548Q30 550 30 569Q23 577 23 587Q23 594 28 608T33 630Q33 642 21 651Q24
681 18 729Q11 782 12 808Q28 812 59 838Q86 862 109 862Q130 836 162 780Q157 766 157 755Q157 738 175 713T193 669Q193 659 189 647Q229 620 266 520Q267 515 267 511Q267 505 264 496T260 483Q260 477 266 471Q279 459 334 362Q329 326 366 290Q407 248 412
226Q425 200 438 173Q456 143 479 129Q484 127 489 127Q497 127 506 138T521 150Q547 180 579 235Q621 308 632 325Q685 453 716 519Q731 561 772 637Q769 647 769 656Q769 672 783 696T797 735Q797 746 792 757Q842 837 901 846Q900 827 919 807T939 775Q939 764
927 749Q931 574 920 540Q913 512 937 493Q935 435 944 326Q953 238 965 63Z" />
<glyph unicode="N" glyph-name="N" horiz-adv-x="760" d="M677 605Q676 596 669 580Q675 493 663 423Q676 408 667 385Q662 187 673 134Q662 77 653 57Q638 17 606 -1Q604 0 547 75Q530 86 514 113Q489 156 488 157Q484 187 449 217T408 272Q400 280 370 341Q349
384 314 396Q298 420 269 469Q270 487 256 501Q243 511 230 522Q220 545 184 579T139 639Q137 644 107 648Q90 620 83 568Q73 487 72 483Q81 470 81 456Q81 447 76 428T70 397Q70 385 75 374Q81 323 82 242V148Q82 102 84 71Q87 32 57 13T6 -3Q1 18 21 47Q19 64
19 82Q19 111 26 165T35 247Q41 286 36 340Q30 414 30 427Q30 463 39 494Q40 505 35 522T30 547Q30 556 36 565Q18 665 27 691Q27 707 14 728T0 763Q0 771 3 780Q31 809 91 857Q108 851 141 789Q182 729 251 595Q270 559 311 507Q370 433 378 422Q378 400 404 381T434
346Q473 311 487 249Q506 241 537 206Q564 175 591 170Q616 247 605 302Q606 326 614 380Q622 431 622 458Q622 492 613 520Q611 588 607 641Q607 651 612 670T618 697Q618 712 603 720Q605 727 605 734Q605 750 590 774T577 815Q617 834 647 859Q654 862 671 841Q669
837 669 833Q669 827 673 819T677 808Q677 802 671 797Q678 770 669 708Q672 700 666 694T663 679Q667 669 670 642T677 605Z" />
<glyph unicode="O" glyph-name="O" horiz-adv-x="1155" d="M1100 504Q1106 478 1106 450Q1106 381 1071 323Q1078 319 1077 305Q1077 284 1077 283Q1059 276 1054 238T1027 194Q1020 189 1002 182Q1002 150 970 126Q917 88 916 87Q761 7 679 7Q643 7 607 16Q607
15 572 10Q558 28 546 24Q524 22 489 10Q447 27 346 39T201 70Q193 82 169 92T138 117Q119 128 99 139Q78 154 83 179Q60 193 37 208Q11 226 11 254Q8 273 0 308Q-15 343 4 479Q15 494 42 556Q63 605 92 626Q95 633 131 656Q158 720 293 800Q304 801 322 817Q337
831 354 830Q456 869 583 885Q592 885 644 887Q684 890 708 888Q743 885 766 873Q773 871 787 871Q823 852 899 821Q904 799 925 780Q958 750 960 747Q991 745 1016 715Q1034 688 1053 662Q1046 649 1046 637Q1046 620 1066 597T1089 559Q1098 553 1097 533Q1097
509 1100 504ZM997 571Q977 574 970 594T956 632Q890 749 798 791Q755 796 716 835Q650 846 590 846Q499 846 448 819Q419 820 386 802Q336 776 331 775Q203 682 128 568Q131 547 109 532Q84 516 82 503Q96 488 92 454T97 406Q103 350 103 343Q112 338 112 319Q111
295 114 290Q127 284 150 270Q161 218 209 191Q226 188 255 160Q281 136 306 138Q329 120 378 102Q433 81 451 71Q473 70 527 61Q576 54 604 54Q633 54 657 60Q674 55 694 55Q722 55 768 68Q823 84 840 87Q848 113 889 142T936 199Q961 216 968 260Q972 297 976
335Q982 354 988 372Q995 394 991 405Q992 432 986 476Q984 482 984 488Q984 499 992 519T1001 551Q1001 561 997 571Z" />
<glyph unicode="P" glyph-name="P" horiz-adv-x="745" d="M745 713Q743 696 718 642Q707 647 700 640T687 625Q687 602 661 585Q632 567 628 553Q606 535 550 518T472 482Q375 454 219 432Q164 416 140 392Q137 335 146 230Q145 230 136 216Q130 208 131 198Q141
191 141 171Q140 146 144 140Q151 60 138 39Q93 6 38 4Q33 12 41 36Q39 48 39 61Q39 84 45 126T52 189Q52 219 43 245Q62 345 62 353Q62 378 54 398Q60 413 60 455Q40 505 56 593Q62 602 57 612Q50 624 51 631Q49 641 49 651Q49 662 52 680T56 706Q56 726 41 740Q44
756 39 774Q30 801 30 804Q16 811 0 833Q61 883 123 883Q146 883 168 876Q181 873 194 873Q212 873 244 879T291 886Q312 886 330 879Q360 880 421 874Q428 864 450 865Q476 866 482 862Q483 862 550 855Q588 850 606 831Q656 832 718 783Q737 752 745 713ZM640
665Q644 680 644 693Q644 722 620 750Q598 772 577 795Q552 805 501 820Q488 819 471 830Q440 828 385 838Q376 833 365 833Q357 833 340 838T313 843Q305 843 297 841Q283 831 254 831Q245 831 228 832T203 833Q151 833 144 796Q143 739 142 619Q148 603 148 553Q148
530 151 516Q143 511 142 490Q164 493 199 487T249 480Q266 480 281 485Q348 491 469 523Q480 528 508 532Q550 577 640 665Z" />
<glyph unicode="Q" glyph-name="Q" horiz-adv-x="1240" d="M1208 -15Q1186 -49 1130 -59Q1078 -62 1026 -66Q989 -69 929 -75Q853 -78 749 -44Q629 -5 578 0Q555 18 493 3Q472 -4 451 11Q367 27 283 43Q188 64 139 113Q110 119 84 163T30 214Q0 281 0 364Q0 412
12 454Q30 500 48 546Q69 600 99 629Q131 634 169 694Q367 841 555 866Q567 871 597 871H605Q638 871 652 878Q686 882 755 864Q772 863 800 850T843 835Q868 829 897 798Q929 764 949 755Q950 736 968 729T1002 714Q1067 676 1068 594Q1113 561 1113 468Q1113
452 1111 410Q1109 374 1110 355Q1093 342 1088 294T1060 234Q1062 216 1053 202T1033 175Q1010 176 1003 147Q995 114 981 108Q967 93 922 70Q881 50 867 28Q894 19 937 -14Q1029 -43 1114 -24Q1138 -6 1200 14Q1210 1 1208 -15ZM1006 514Q1015 544 979 567Q977
590 963 617Q944 656 941 663Q888 721 878 730Q841 764 802 778Q783 779 765 790T728 814Q674 833 558 842Q519 829 434 809Q375 781 264 711V705Q237 694 215 666Q197 641 178 617Q155 605 139 556Q125 511 90 505Q91 511 105 464Q96 437 115 326Q112 316 112
309Q112 291 137 272T162 231Q219 152 289 141Q292 134 308 131T322 114Q358 91 436 76Q453 67 473 67Q490 67 519 75Q552 84 563 85Q625 81 739 63Q761 63 790 83T840 104Q857 124 898 154T957 205Q963 250 995 329Q1000 352 997 415T998 508Q1002 508 1006 514Z"
/>
<glyph unicode="R" glyph-name="R" horiz-adv-x="840" d="M809 24Q717 -13 700 -13Q679 -13 659 -4Q627 22 594 48Q557 80 552 117Q536 135 446 205Q379 257 357 308Q341 324 324 323Q302 332 276 365T227 407Q205 431 147 445Q144 437 136 419Q132 141 144 57Q138
33 104 24Q65 13 55 0Q43 -6 26 -6Q24 1 24 8Q24 17 31 36T37 68Q38 96 40 152Q43 193 69 206Q55 220 52 248Q49 285 45 295Q48 375 48 477Q45 481 45 485Q45 490 52 503T60 525Q60 534 54 542Q39 591 44 601Q34 617 43 633Q43 632 39 670T28 804Q28 813 14 822T0
840Q0 846 5 854Q58 881 164 884Q176 875 191 875Q200 875 218 879T245 883Q257 883 267 878Q354 880 511 862Q595 837 604 833Q655 809 661 762Q658 744 644 709Q633 704 626 679T603 647Q593 627 559 599Q557 596 556 588Q534 583 488 543Q448 509 409 511Q356
500 336 470Q334 465 334 461Q334 450 346 443Q366 431 366 431Q371 414 395 394T427 357Q489 293 605 158Q618 140 714 70Q719 68 746 53Q766 42 782 42Q791 42 800 45Q808 21 809 24ZM529 767Q513 791 467 806Q415 824 400 838Q377 830 344 835Q299 841 284 840Q232
832 137 802Q130 785 129 743Q131 733 131 723Q131 710 125 686T119 648Q119 640 121 631Q138 621 139 589Q139 564 139 539Q143 512 168 507Q189 503 210 503Q228 503 359 531Q393 547 427 563Q465 584 477 618Q532 658 532 734Q532 750 529 767Z" />
<glyph unicode="S" glyph-name="S" horiz-adv-x="835" d="M794 324Q796 319 796 314Q796 301 778 274T760 228Q760 215 767 200Q704 88 591 37Q588 36 578 26T560 18Q539 7 491 -6T384 -19Q280 -19 179 13Q171 10 163 10Q146 10 115 30T61 50Q55 62 38 60Q26 70
15 79Q0 92 0 106Q0 112 2 119Q8 132 25 151Q25 151 58 180Q73 178 81 159Q90 135 97 130Q120 109 177 80Q271 36 362 32Q372 38 384 38Q391 38 407 34T432 30Q443 30 453 34Q564 38 603 106Q614 128 647 159Q651 165 654 196Q656 221 670 227Q675 252 680 277Q685
308 679 330Q666 354 633 371Q604 384 575 397Q560 399 541 414T510 432Q490 427 469 427Q447 427 406 435T343 443Q326 443 310 440Q302 446 261 459Q228 469 219 488Q160 493 137 590Q136 599 136 608Q136 679 191 723Q189 738 200 747T221 764Q261 790 301 817Q348
845 391 853Q411 864 448 873Q506 885 509 886Q530 879 574 880Q597 883 627 872T677 860Q688 851 668 822Q659 821 642 810T613 799Q606 799 597 803Q542 844 467 844Q449 844 430 842Q384 819 337 797Q281 768 259 728Q256 716 237 697T217 663Q217 657 221 647T225
629Q225 558 221 592Q223 576 251 576Q346 518 375 518Q386 518 396 520Q438 516 479 511Q526 504 549 483Q587 489 617 489Q693 489 726 445Q796 417 794 324Z" />
<glyph unicode="T" glyph-name="T" horiz-adv-x="890" d="M886 834Q840 774 732 774Q706 774 651 778T567 782Q542 782 522 780Q508 782 502 773T497 751Q501 722 496 687Q487 628 487 627Q481 604 487 565T487 503Q474 489 474 475Q474 470 483 442Q490 419 484
400Q490 400 490 394T494 385Q489 363 493 277Q496 208 476 177Q474 170 474 165Q474 155 486 141T497 112Q511 22 456 0Q437 -13 409 -9Q396 21 402 132Q403 135 406 213Q408 262 423 286Q388 397 413 526Q393 588 383 712Q382 726 392 744T404 771Q396 787 370
792Q326 800 326 800Q266 802 153 811Q105 809 17 793Q13 792 9 792Q-11 792 0 834Q7 837 49 867Q79 889 101 889Q120 889 138 873Q144 871 183 876Q206 879 246 869Q291 858 312 858Q321 858 330 859Q345 852 386 854Q424 855 439 846T503 834Q546 831 566 818Q586
816 618 824T663 833Q671 833 677 831Q700 838 741 837Q800 836 806 837Q843 839 865 851Q870 851 876 850Q889 851 889 844Q888 839 886 834Z" />
<glyph unicode="U" glyph-name="U" horiz-adv-x="995" d="M913 847Q917 820 911 782Q905 738 905 718Q911 705 911 692Q911 675 896 647T881 607Q881 587 906 571Q903 545 897 493Q891 492 891 483Q892 468 891 467Q902 437 900 394Q891 381 891 367Q891 357 897
337T903 304Q903 294 901 286T899 268Q899 253 907 222T913 173Q912 160 914 134Q917 104 917 92Q917 32 872 22Q855 10 817 -4Q819 7 819 19Q819 38 810 83Q802 124 804 152Q792 163 760 154Q733 143 686 110Q657 87 598 60Q530 29 508 15Q483 14 439 -1T369 -18Q335
-25 300 -25Q188 -25 113 40Q94 41 81 60Q60 88 57 90Q59 97 59 103Q59 119 42 138T24 172Q11 183 11 200Q11 209 16 228T21 256Q21 276 0 288Q1 274 12 352H14Q19 359 21 399Q22 428 44 435Q28 520 49 555Q54 582 81 635Q105 684 108 720Q122 743 114 762Q102
772 104 794Q141 821 251 857Q260 829 261 833Q228 782 195 730Q159 671 144 621Q139 588 114 496Q94 421 94 371Q94 339 101 308Q115 294 112 259Q108 221 116 208Q167 123 171 118Q210 71 263 68Q285 70 317 50T363 29Q381 29 398 47Q419 44 439 44Q483 44 530
64Q570 84 610 103Q625 124 669 144T728 181Q736 186 749 198Q755 214 791 258Q819 293 819 320Q819 332 816 343Q806 365 816 391Q830 423 830 429Q830 444 812 457Q803 504 802 580V657Q802 732 793 779Q784 790 784 799Q784 810 808 822T837 844Q850 841 870
854T897 868Q908 868 913 847Z" />
<glyph unicode="V" glyph-name="V" horiz-adv-x="800" d="M763 829Q750 805 730 750T696 671Q680 630 652 549Q623 527 607 467Q590 399 573 378Q561 322 538 281Q540 262 533 243T517 205Q513 195 506 178Q500 138 469 69Q463 44 439 29T392 1Q349 -2 345 22Q338
36 297 169Q286 181 278 214T258 259Q262 269 262 277Q262 292 239 310T220 348Q192 403 143 518Q146 524 146 530Q146 542 129 556Q108 574 104 583Q92 592 87 634Q82 672 59 680Q44 694 31 734T0 789Q5 805 27 827Q44 828 60 844Q86 867 88 869Q114 858 118 842Q128
792 139 742Q152 685 172 651Q172 636 188 615T204 577Q215 567 216 512Q217 464 251 463Q248 448 262 435T272 407Q287 390 301 329Q312 275 340 260Q363 221 391 131Q408 106 429 128Q443 163 477 231Q477 256 501 286T529 334Q527 344 527 354Q527 371 538 397T550
437Q573 444 575 481Q577 525 585 534Q596 557 614 702Q616 724 636 769Q653 810 654 839Q698 855 748 862Q766 844 763 829Z" />
<glyph unicode="W" glyph-name="W" horiz-adv-x="1065" d="M1014 860H1010Q1006 745 960 690Q965 653 945 606Q920 542 917 528Q892 475 883 412Q871 396 853 359Q855 326 829 265Q819 231 821 218Q814 217 814 209Q815 198 815 197Q817 190 817 182Q817 166 807
140Q792 103 792 100Q781 67 756 6Q752 4 740 -4Q732 -10 722 -7Q702 19 689 66Q670 139 668 144Q677 150 672 159Q665 172 665 176Q650 191 649 241T633 306Q624 330 603 376Q601 410 576 461Q573 466 568 500Q564 526 549 532Q552 546 529 588Q514 577 506 549Q496
516 490 508Q464 489 454 433Q444 373 426 355Q423 312 396 229Q371 150 368 101Q357 93 355 65T344 27Q341 26 339 14T330 2Q325 2 321 4Q284 48 265 143Q268 159 255 179T241 210Q241 218 247 227Q250 237 232 256Q220 269 211 301Q210 302 209 304T209 345Q210
372 187 374Q180 385 167 434Q157 473 136 487Q117 522 81 595Q82 608 75 626T72 660Q53 679 36 729T0 798Q-3 821 20 833Q52 851 57 857Q71 868 103 866Q130 814 130 765Q130 744 125 727Q149 723 156 690Q165 653 178 645Q183 634 184 583T214 519Q225 507 236
464Q245 426 264 414Q271 366 303 284Q305 271 308 257T324 240H339Q360 253 369 302T399 366Q408 412 431 496Q451 573 472 738Q472 739 495 804Q510 844 545 846Q604 825 604 770Q604 761 599 747T593 727Q593 719 598 712Q615 696 625 658Q636 616 646 603Q653
592 651 545Q650 507 673 497Q683 484 682 451T691 405Q696 352 732 262Q744 258 755 254Q766 252 770 268Q796 330 838 454Q843 504 861 527Q862 567 884 638T907 745Q913 753 912 795Q911 828 934 833Q945 848 1007 875Q1004 870 1010 868T1014 860Z" />
<glyph unicode="X" glyph-name="X" horiz-adv-x="890" d="M860 46Q847 25 814 -7Q804 -9 796 -9Q768 -9 735 15Q690 47 681 52T661 92Q652 120 631 120Q625 120 618 118Q611 133 579 165Q552 191 548 215Q523 230 490 275T432 335Q419 343 408 366T388 397Q358
390 323 344Q293 304 245 220Q241 214 204 173Q178 145 176 119Q172 105 147 88T121 52Q59 -4 23 -4Q12 -4 0 -1V19Q21 43 71 83Q81 90 100 108Q105 131 138 159T176 211Q190 236 253 322Q303 389 320 438Q324 475 285 507Q233 549 225 565Q204 595 175 614Q166
644 129 678Q85 717 75 735Q39 763 33 788Q51 809 70 831Q95 854 125 853Q138 847 146 820T172 788Q199 776 218 727T260 664Q305 618 305 594Q305 585 302 576Q310 564 335 554T370 526Q376 524 381 524Q391 524 400 538T414 556Q426 587 463 642T513 728Q529
734 538 762T560 798Q577 801 595 830Q611 856 634 857Q639 857 651 862T669 868Q680 868 680 849Q669 826 586 745Q589 727 568 709T549 672Q501 620 461 551Q430 516 429 482Q432 459 463 434T499 389Q511 386 519 370Q533 345 533 345Q556 327 588 283Q617 248
647 213Q682 174 718 159Q718 150 742 130H763Q773 113 821 98Q861 84 861 57Q861 52 860 46Z" />
<glyph unicode="Y" glyph-name="Y" horiz-adv-x="840" d="M812 832Q805 832 806 824T803 814Q764 749 683 623Q661 607 645 562T609 501Q598 468 542 410Q544 385 521 359Q494 330 490 315Q492 298 485 275Q477 248 477 239Q477 228 483 214T490 190Q490 178 481
159T471 130Q471 116 482 103Q479 90 488 74Q480 66 479 25Q478 -1 456 -1Q451 -1 444 0Q428 -3 403 -15Q367 1 367 14Q376 50 376 117Q377 191 381 218Q381 226 384 260Q387 288 384 304Q380 327 363 338Q349 342 332 366T298 394Q293 415 260 451Q232 482 233
512Q214 520 187 548T138 585Q114 610 90 635Q62 665 64 700Q0 732 0 783Q0 821 49 847Q56 849 72 856T96 864Q106 864 114 856Q111 795 135 783Q136 777 148 738Q157 711 156 688Q181 680 207 671T241 636Q244 592 290 551Q358 492 365 483Q361 467 386 447Q411
439 428 416Q434 407 440 398T456 388Q459 388 463 389Q509 410 549 470Q581 521 613 572Q641 609 659 681Q663 697 689 729Q712 756 712 781Q712 787 711 793Q733 829 800 855Q813 835 812 832Z" />
<glyph unicode="Z" glyph-name="Z" horiz-adv-x="855" d="M856 67Q851 44 821 29Q785 11 778 0Q717 -27 686 -1Q665 6 627 5Q584 4 568 7V10Q583 10 482 15Q428 18 397 7Q258 20 59 -13Q37 -16 0 2Q3 23 32 46T65 88Q78 92 86 112Q97 136 103 141Q127 167 167
228T232 315Q233 329 248 342T266 366Q296 415 322 425Q322 463 345 504Q361 511 381 554Q395 586 442 650Q485 711 500 749Q507 767 483 775Q397 774 230 778Q208 792 115 780Q103 781 83 777Q89 777 42 772Q17 769 10 780Q26 800 41 820Q63 844 85 847Q92 839
101 844Q115 851 121 851Q169 845 264 835Q298 835 332 835Q373 835 397 823Q404 822 410 828T424 834Q446 829 508 833Q562 837 588 826Q594 832 608 832Q631 832 633 832Q643 829 647 819Q651 809 643 803Q637 789 613 774T586 740Q582 712 530 676Q521 631 480
574Q431 506 419 478Q403 460 381 416T340 351Q320 337 299 322Q276 303 276 279Q276 270 279 259Q267 236 255 212Q237 186 212 185Q205 179 205 168Q205 163 206 153T208 138Q208 122 193 115Q190 109 190 102Q190 87 214 71Q205 72 303 72Q359 72 389 60Q400
55 415 60Q432 67 441 66Q489 70 574 58Q628 54 736 61Q739 66 742 62Q746 55 751 58Q758 63 793 65Q822 67 830 82Q840 87 849 83Q859 79 856 67Z" />
<glyph unicode="[" glyph-name="bracketleft" horiz-adv-x="500" d="M433 -52Q433 -56 430 -58T399 -93Q377 -118 368 -118Q357 -118 338 -109Q324 -102 304 -108Q291 -102 277 -105Q255 -109 251 -109Q242 -109 232 -102L196 -109Q187 -105 159 -100Q146 -106
131 -106Q73 -106 73 -78Q96 8 100 12L99 47Q97 120 111 193Q104 213 104 273Q104 295 112 338T120 402Q120 458 104 478Q104 494 106 539Q107 577 107 600Q107 688 93 724Q101 807 89 832Q89 843 97 878T106 927L104 937Q92 944 88 973T65 1007L66 1015Q113 1038
153 1038Q165 1038 200 1029T240 1015Q240 1013 243 1011Q269 1007 324 1010L342 1005Q360 1013 422 1013Q431 1013 431 1005Q431 996 420 979T398 962Q333 962 323 966Q324 974 299 974Q294 974 256 968Q231 964 212 972Q187 955 203 941L204 927Q205 904 198
847Q190 784 181 771Q184 738 205 685Q202 624 182 555Q189 538 189 429Q189 421 193 405T197 382Q197 370 190 311Q185 269 192 240Q189 236 176 139Q193 95 193 43Q193 11 184 0Q205 -41 224 -55T289 -70Q300 -70 321 -67T353 -64Q368 -64 391 -55T428 -45Q433
-48 433 -52Z" />
<glyph unicode="\" glyph-name="backslash" horiz-adv-x="600" d="M694 -225Q700 -252 672 -270Q658 -274 646 -267Q629 -257 623 -257T606 -254Q578 -226 540 -131Q530 -118 510 -89Q510 -88 415 97Q411 117 385 158Q363 193 362 222Q351 231 341 257T319 293Q311
319 276 371Q245 419 237 453Q237 478 219 502Q203 523 187 543Q176 563 154 601Q146 631 121 674Q91 725 83 745Q38 856 3 909Q1 917 -10 936Q-20 952 -20 965Q-36 991 -48 1026Q-84 1073 -94 1133Q-84 1160 -60 1162Q-57 1161 -28 1146Q-8 1136 9 1136Q20 1126
38 1082Q43 1060 62 1022Q67 995 88 950T115 877Q118 857 134 828Q153 795 157 783Q167 750 194 692Q229 655 242 596Q253 591 254 568T264 541Q317 498 349 370Q365 361 377 332Q390 300 399 291Q424 214 455 188Q481 131 546 25Q554 11 569 -17T593 -60Q593 -85
630 -134Q651 -164 694 -225Z" />
<glyph unicode="]" glyph-name="bracketright" horiz-adv-x="500" d="M434 -88L433 -95Q386 -118 346 -118Q334 -118 299 -109T259 -95Q259 -94 256 -91Q230 -88 175 -90L158 -85Q139 -93 77 -93Q68 -93 68 -85Q68 -76 79 -59T101 -42Q166 -42 176 -46Q175 -54
200 -54Q205 -54 243 -48Q268 -44 287 -52Q312 -35 296 -21L295 -7Q294 16 301 73Q309 136 318 149Q315 182 294 235Q297 296 317 365Q310 382 310 490Q310 499 306 515T302 538Q302 550 309 609Q314 651 307 680Q310 684 323 781Q306 825 306 877Q306 909 315
920Q294 961 277 975Q255 990 210 990Q199 990 178 987T146 983Q131 983 108 975T71 965Q66 968 66 972Q66 976 69 978T100 1013Q122 1038 131 1038Q142 1038 161 1029Q175 1022 195 1028Q208 1022 222 1025Q244 1029 248 1029Q257 1029 267 1022L303 1028Q313
1025 341 1020Q353 1026 368 1026Q427 1026 427 998Q403 912 399 908L400 873Q402 800 388 727Q395 707 395 646Q395 625 387 582T379 518Q379 462 395 442Q395 426 393 381Q392 343 392 320Q392 232 406 196Q399 113 410 88Q410 77 402 42T393 -7L395 -17Q407
-24 411 -53T434 -88Z" />
<glyph unicode="^" glyph-name="asciicircum" horiz-adv-x="500" d="M430 859Q426 838 413 835Q397 821 370 823Q346 836 305 870Q288 877 276 894T251 927Q241 939 226 946Q194 939 169 900Q157 881 125 850Q116 837 84 825Q81 822 76 825L72 827L70 828Q69 843
89 855T114 880Q120 883 125 894Q127 899 133 899Q150 912 181 955Q205 987 228 998Q247 1016 291 1038Q293 1035 298 1034Q298 997 310 980Q322 955 348 942Q365 904 384 893Q389 881 403 875Q425 866 426 866Q429 863 430 859Z" />
<glyph unicode="_" glyph-name="underscore" horiz-adv-x="600" d="M600 -84H0V-24H600V-84Z" />
<glyph unicode="`" glyph-name="grave" horiz-adv-x="180" d="M168 729Q164 727 158 716Q157 714 154 715Q117 732 95 783Q68 809 41 834Q11 866 11 900Q20 902 35 910Q60 906 85 903Q117 898 126 881Q123 849 145 803Q168 754 168 729Z" />
<glyph unicode="a" glyph-name="a" horiz-adv-x="675" d="M598 45Q523 4 503 4Q501 0 499 0Q498 0 495 5T489 10Q488 10 486 9Q492 26 482 49Q334 1 171 -3Q137 -2 79 17Q53 17 33 43Q16 65 0 87Q-7 146 2 155Q12 208 69 247Q119 276 170 306Q175 310 204 312Q227
315 231 330Q274 348 422 362Q447 362 485 381Q487 386 487 392Q487 400 483 414T478 435Q478 446 485 454L484 472Q477 477 426 527Q393 561 356 561Q347 561 337 559Q323 557 304 563Q282 570 275 570Q265 570 257 565Q243 549 196 528Q155 510 142 485Q132 487
127 479Q90 479 54 508V523Q124 557 148 566Q202 587 253 592Q288 604 330 604Q381 604 484 578Q481 551 517 539T554 501Q557 482 563 440Q576 426 579 393Q584 354 588 343Q567 299 588 278Q586 249 589 187T591 95Q609 60 598 45ZM491 142L490 286Q485 294 472
296T446 301Q417 299 361 309Q323 319 308 307Q266 309 220 285Q181 264 143 243Q95 187 95 173Q95 160 103 146Q102 124 108 79Q134 75 168 59Q219 34 223 33Q236 37 300 44Q347 50 368 68Q421 63 491 142Z" />
<glyph unicode="b" glyph-name="b" horiz-adv-x="765" d="M692 302Q668 260 634 172Q606 136 493 45Q362 -1 314 -1Q280 -1 249 9Q191 19 75 37Q53 31 1 25Q0 30 0 35Q0 52 22 75T45 117Q46 139 54 208Q72 223 69 235Q52 243 51 256Q50 248 50 333Q49 380 62 408Q48
428 50 472Q51 524 47 538Q45 570 58 620Q39 699 39 805Q39 899 54 1021Q61 1024 60 1033Q60 1046 60 1047Q32 1054 30 1089Q33 1046 33 1148Q40 1156 26 1186Q23 1191 23 1197Q23 1197 47 1227Q51 1228 82 1243Q106 1253 120 1253Q138 1253 150 1239Q153 1228
147 1216T142 1195Q151 1178 151 1158Q151 1144 143 1112T136 1062Q157 1017 134 988Q129 982 128 963Q140 950 143 929Q145 914 143 888Q140 855 140 850Q139 841 142 820Q145 794 145 783Q145 742 116 732Q114 725 114 720Q114 708 127 694T140 668Q140 663 137
656Q144 650 144 635Q143 611 144 609Q125 571 135 559Q141 547 171 547Q181 561 217 563T265 576T294 586Q302 586 316 583T338 580Q353 580 367 589Q380 594 392 594Q406 594 430 587T469 579Q479 579 489 581Q510 575 550 554Q558 534 593 527T639 502Q640 487
659 464T677 422Q702 365 702 340Q702 319 692 302ZM589 287Q575 319 578 393Q564 408 536 437Q531 451 505 465T471 493Q367 533 289 533Q267 549 262 530Q182 508 142 462Q143 455 138 446T132 433Q132 428 138 423Q144 392 142 341Q133 325 133 306Q133 314
148 232Q146 229 143 124Q128 85 143 73Q153 76 162 76Q176 76 202 67T246 59Q343 25 419 62Q482 63 551 172Q566 190 575 226Q582 257 589 287Z" />
<glyph unicode="c" glyph-name="c" horiz-adv-x="620" d="M604 113Q584 57 501 27Q437 30 369 -5Q359 -2 348 -8T327 -11Q311 -8 283 -1Q222 13 161 26Q89 44 68 97Q34 112 15 170Q18 199 0 240Q6 255 6 288T8 335Q27 369 46 404Q69 444 99 459Q121 490 165 521Q203
547 241 573Q258 578 296 588Q317 600 382 586Q387 592 407 592Q421 594 443 589Q468 590 517 586Q532 583 540 575Q538 562 526 551Q510 537 506 530Q473 509 419 509Q398 509 353 513T285 518Q221 518 184 489Q162 477 134 438Q126 437 102 402Q98 386 90 371Q87
335 94 283Q103 219 103 200Q117 181 154 150Q160 135 218 88Q240 57 298 50Q346 45 395 39Q511 68 589 145Q608 138 604 113Z" />
<glyph unicode="d" glyph-name="d" horiz-adv-x="765" d="M696 30Q667 8 598 18Q587 50 551 42Q434 -17 215 -1Q206 0 191 9T166 18Q160 18 154 16Q145 39 102 46T53 81Q40 97 36 129Q6 156 6 190Q0 211 0 231Q0 264 18 307Q44 372 47 382Q51 396 85 414Q113 428
108 455Q127 473 152 514Q186 546 261 542Q288 597 405 597Q418 589 461 589T520 577Q529 579 546 570T569 560Q580 560 585 577Q576 604 579 661Q574 705 590 793Q589 804 578 838Q570 866 570 886Q570 893 571 907T574 927Q571 966 583 1034Q552 1060 554 1146Q553
1154 545 1165T537 1185Q537 1190 539 1195Q555 1209 591 1220Q632 1232 644 1240Q659 1246 674 1220Q673 1122 654 937Q653 932 653 927Q653 916 659 895T666 861Q666 849 660 838Q660 807 660 777Q658 742 640 728Q639 715 648 701Q660 681 661 678Q658 644 667
581Q653 527 653 462Q653 409 666 307Q680 201 681 151Q682 127 692 83Q697 32 696 30ZM588 342Q574 358 572 420Q571 476 547 489Q515 489 458 505T367 521V524Q330 513 276 515Q269 509 200 469Q153 441 144 405Q136 392 115 373Q73 327 94 255Q92 244 101 231T109
205Q181 78 274 65Q336 50 396 50Q523 50 572 116L571 289Q593 311 588 342Z" />
<glyph unicode="e" glyph-name="e" horiz-adv-x="675" d="M625 160Q630 150 630 139Q630 127 589 57Q500 13 310 5Q260 3 172 19Q144 26 108 55Q63 91 48 99Q27 112 22 156T0 214Q-3 358 47 397Q55 427 85 446Q105 468 124 490Q148 515 173 520Q206 556 274 574Q333
587 391 601Q398 597 455 580Q496 568 512 546Q562 523 609 407Q610 403 607 384Q597 382 536 380Q520 380 512 378Q461 374 365 388Q275 387 112 362Q77 337 77 305Q77 298 79 290Q93 275 103 234T128 176Q136 149 172 124Q214 95 225 79Q232 78 247 67T275 59Q306
27 366 47Q529 65 584 128Q592 139 600 151T625 160ZM474 451Q472 479 444 501Q420 518 396 536Q396 536 312 539Q271 524 230 509Q183 492 167 456Q181 440 221 441Q273 441 283 438Q284 436 308 436Q331 448 392 432Q440 437 474 451Z" />
<glyph unicode="f" glyph-name="f" horiz-adv-x="520" d="M495 1190Q486 1174 465 1162Q447 1154 430 1146Q420 1149 378 1170Q345 1188 323 1188Q302 1188 282 1175Q241 1167 203 1078Q170 1040 170 948Q169 811 168 806Q147 778 172 724Q176 678 163 596Q170
579 176 562Q185 542 203 538Q241 528 325 536Q327 536 392 545Q433 551 461 548Q469 548 472 537Q475 526 470 519Q446 506 403 471Q376 476 306 472Q244 468 211 479Q198 473 178 455Q175 445 175 434Q175 420 181 396T188 360Q188 341 174 327Q170 311 177 296Q185
276 185 268Q200 176 174 159Q175 149 182 121T189 77Q189 53 175 37Q121 -4 72 13Q71 37 81 78T92 140Q92 149 91 158Q98 176 98 196Q98 211 93 239T87 281Q87 300 94 316Q88 320 90 326Q88 369 100 449Q107 458 107 463Q107 469 91 472T73 482Q55 488 19 488Q-21
487 -37 490Q-39 504 -28 520Q-10 546 -10 547Q22 547 72 564Q87 587 87 631Q87 667 87 703Q89 720 93 732Q87 732 85 739T78 747Q80 761 80 777Q80 795 77 830T74 882Q74 931 94 959Q99 1004 104 1025Q112 1060 129 1082Q167 1146 312 1230Q318 1229 329 1234Q347
1236 377 1245Q377 1245 452 1234Q497 1228 495 1190Z" />
<glyph unicode="g" glyph-name="g" horiz-adv-x="725" d="M748 -91Q766 -124 766 -161Q766 -234 692 -324Q588 -408 503 -442Q474 -461 445 -465Q404 -467 333 -484Q317 -484 285 -490T236 -496Q213 -496 194 -487Q120 -491 110 -479Q96 -469 52 -460Q13 -452
-2 -435Q-26 -417 -51 -399Q-77 -374 -74 -341Q-80 -336 -80 -331Q-80 -327 -75 -318T-71 -300Q-50 -236 46 -202Q48 -198 65 -202Q12 -290 12 -326Q38 -374 154 -435Q198 -441 245 -441Q358 -441 542 -392Q556 -393 569 -376T591 -357Q615 -341 639 -324Q665 -302
665 -274Q665 -264 662 -254Q672 -249 671 -229T679 -203Q664 -177 641 -118Q635 -85 597 -71Q566 -55 509 -50Q461 -46 414 -42Q404 -36 394 -36Q386 -36 368 -44T338 -51Q260 -60 232 -45Q154 -69 125 -46Q119 -45 75 -23Q50 0 49 45Q49 66 70 84Q97 107 101
116Q121 132 166 157Q165 158 122 182Q95 197 93 222Q65 230 33 284Q37 371 68 442Q84 445 86 457Q190 555 297 565Q319 575 387 567Q450 558 477 580Q492 592 519 592Q532 592 573 586Q608 581 627 583Q646 579 676 613Q682 613 697 617T720 622Q734 622 734 608Q734
604 733 598Q708 579 666 530Q655 512 612 510T559 494Q593 449 589 421Q593 363 545 315Q504 275 463 235Q437 215 314 178Q307 161 281 140Q246 130 211 120Q174 105 161 75Q155 69 155 63Q155 55 175 30Q182 27 281 22Q305 21 320 14Q362 37 491 25Q504 29 529
35Q557 34 605 21Q667 9 682 -27Q705 -37 728 -47Q751 -62 748 -91ZM486 403Q489 425 439 464Q387 526 329 525Q323 513 279 520Q279 520 262 517Q237 509 189 487Q167 469 138 422Q140 411 130 398Q123 291 225 245Q260 235 295 235Q408 235 477 317Q485 343 486
403Z" />
<glyph unicode="h" glyph-name="h" horiz-adv-x="675" d="M598 409Q598 389 590 356T582 306Q582 288 588 270Q595 186 584 165Q590 128 587 68Q593 64 593 60Q593 57 588 49T584 35Q546 11 492 -1Q485 -4 480 4T472 14Q475 63 492 91Q487 108 487 127Q487 146
494 180T501 230Q501 253 491 274Q489 283 489 291Q489 303 495 324T502 357Q502 367 500 377Q499 408 498 439Q493 475 467 485Q393 514 317 514Q285 514 255 508Q251 506 187 478Q144 459 131 431Q113 389 123 376Q116 352 123 313Q124 302 117 282T109 253Q109
241 117 231Q133 109 133 105Q133 73 124 45Q120 26 99 18Q87 20 67 7T39 -6Q31 -6 25 3Q24 23 32 57T40 109Q40 125 35 139T34 172Q39 199 39 203Q39 215 33 224Q32 227 36 228T39 233Q38 219 37 335Q36 400 55 430Q59 455 41 466Q33 562 40 657Q51 665 48 693Q36
703 36 731Q36 767 33 775Q24 834 37 864Q27 876 27 894Q27 902 30 919T33 945Q33 963 22 973Q21 1029 20 1085Q18 1151 0 1187Q2 1194 2 1208Q28 1220 53 1233Q83 1247 111 1244Q115 1237 120 1232Q120 1203 118 1200Q114 1189 114 1172Q114 1164 115 1148T116
1123Q116 1083 89 1072Q86 1065 86 1060Q86 1053 100 1051T115 1038Q115 895 113 876Q110 863 98 843Q101 829 115 807L116 523Q121 523 124 517T131 511Q160 530 190 550Q224 570 259 576Q316 595 343 587Q346 586 352 578T364 569Q369 569 373 573Q391 588 420
588Q437 588 466 582Q501 574 511 573Q534 557 564 514Q603 490 598 409Z" />
<glyph unicode="i" glyph-name="i" horiz-adv-x="250" d="M167 925Q170 908 153 897Q129 883 127 879Q96 857 35 813Q25 816 25 823Q25 828 32 838T41 853Q54 861 71 887T102 921Q104 931 114 938T127 950Q132 951 137 951Q144 951 167 925ZM163 331Q156 247 148
242Q149 234 161 171Q169 125 169 97Q169 68 162 45Q158 26 137 18Q125 20 105 7T77 -6Q69 -6 63 3Q62 23 70 57T78 109Q78 125 73 139T72 172Q77 199 77 203Q77 215 71 224Q77 220 84 216Q86 222 86 226Q86 235 75 245T64 262Q64 268 69 275Q73 308 76 340Q76
377 56 401Q55 464 39 528Q71 554 144 593Q150 594 150 587T156 581Q166 482 148 387Q147 383 147 379Q147 369 157 360T168 344Q168 338 163 331Z" />
<glyph unicode="j" glyph-name="j" horiz-adv-x="275" d="M167 925Q170 908 153 897Q129 883 127 879Q96 857 35 813Q25 816 25 823Q25 828 32 838T41 853Q54 861 71 887T102 921Q104 931 114 938T127 950Q132 951 137 951Q144 951 167 925ZM172 -12Q172 -32 165
-73T158 -133Q158 -146 164 -170T170 -206Q170 -301 138 -349Q143 -364 143 -381Q143 -408 126 -452Q125 -507 80 -566Q17 -649 9 -667Q-4 -671 -6 -680Q-104 -777 -202 -777Q-202 -777 -222 -775Q-238 -776 -268 -775L-353 -763Q-372 -743 -372 -737Q-372 -716
-354 -716Q-306 -716 -315 -719Q-277 -748 -194 -748Q-125 -748 -58 -697T27 -579Q35 -563 44 -532Q58 -522 58 -461Q58 -366 87 -299Q75 -272 75 -230Q75 -253 80 -114Q81 -106 88 -98T96 -83Q96 -79 92 -73L78 -67Q78 -55 76 -31T73 5Q73 41 94 54Q93 68 81 91T68
130Q68 197 85 216L87 226Q87 234 76 244T65 262Q65 268 70 275Q77 348 77 343Q77 377 58 401Q56 464 40 528Q42 529 93 565Q133 593 145 593Q151 593 151 587T158 581Q161 548 161 514Q161 490 155 445T148 377Q148 369 159 360T170 344Q170 338 165 331Q159 266
159 197Q159 162 165 93T172 -12Z" />
<glyph unicode="k" glyph-name="k" horiz-adv-x="650" d="M631 62Q633 15 584 -5Q561 -14 535 -14Q488 -14 425 15Q421 18 404 38Q390 54 380 54Q374 54 369 51Q317 89 210 164Q189 185 133 208Q126 201 127 199Q125 119 137 44Q133 18 102 6Q77 -4 51 -13Q21
-7 28 26H30Q32 87 36 205Q38 214 51 226Q36 238 36 258Q36 266 39 284T42 311Q42 328 33 340Q29 399 41 506Q35 519 28 532Q22 548 32 559Q24 581 27 623Q30 670 26 689Q45 739 32 752Q28 787 16 850Q20 870 20 891Q20 918 10 973T0 1061Q0 1083 3 1103Q-6 1120
-1 1145Q7 1179 5 1191Q16 1195 48 1220Q73 1240 97 1236Q100 1163 102 1089Q103 1003 90 944Q91 917 107 891Q110 869 110 834V786Q110 747 114 727Q113 685 111 602Q110 576 106 559Q122 527 121 461Q120 378 124 359Q120 288 120 321Q120 296 136 291Q169 311
202 331Q240 357 256 389Q296 414 364 493Q428 567 474 592Q484 594 508 566Q512 542 494 528T459 501Q453 490 426 480Q403 471 401 451Q351 400 315 380Q308 364 266 336Q230 310 230 291Q230 277 242 262Q321 216 354 150Q368 146 387 139Q393 140 399 140Q432
140 484 106Q491 99 505 83Q524 83 566 71Q604 60 631 62Z" />
<glyph unicode="l" glyph-name="l" horiz-adv-x="200" d="M127 97Q127 33 100 23Q54 -7 16 -10Q16 11 9 37Q10 89 15 191Q18 229 30 252Q30 261 22 276T14 299Q14 309 23 317Q40 347 14 393Q21 461 35 597Q39 607 31 620T25 644Q22 669 22 797Q38 832 24 870Q11
891 15 1012Q17 1023 17 1037Q17 1057 9 1095T0 1150Q0 1186 29 1207Q35 1209 58 1224Q77 1236 88 1236Q99 1236 106 1227Q106 1206 108 1203Q125 1112 103 1050Q113 1024 109 990Q103 941 103 927Q110 802 102 697Q88 666 88 625Q88 579 108 559Q109 482 105 332Q96
322 96 299Q97 258 97 261Q125 220 127 137Q135 130 131 119Q125 104 127 97Z" />
<glyph unicode="m" glyph-name="m" horiz-adv-x="865" d="M785 50Q780 42 706 -9Q703 -7 685 -7Q685 -10 683 108Q682 181 699 218Q701 237 690 268Q686 311 698 386Q687 427 676 468Q661 516 619 521Q607 522 594 522Q512 522 451 461Q454 445 447 422Q439 396
439 386Q439 373 446 360Q446 359 451 285Q455 238 440 213Q447 156 461 46Q443 26 400 2Q400 2 367 -2Q367 11 364 58Q361 97 364 120Q367 154 381 175Q357 259 366 314Q385 325 381 341Q360 355 355 440Q351 511 295 507Q280 520 251 511Q230 503 183 490Q142
480 127 429Q125 421 113 336Q116 301 105 241Q109 165 120 27Q71 -11 49 -11Q41 -11 32 -9Q22 119 40 222Q27 249 27 289Q27 306 30 340T33 391Q33 424 24 447Q25 460 13 491T0 536Q0 561 30 571Q72 594 81 594Q100 594 106 569Q106 567 119 516Q123 515 127 515Q135
515 147 527T174 536Q209 569 298 591Q312 571 336 581Q368 599 394 596Q414 590 429 566Q441 546 454 526Q503 573 668 592Q696 586 724 580Q756 570 760 544Q759 531 772 508T781 465Q785 325 772 300Q781 261 777 177T785 50Z" />
<glyph unicode="n" glyph-name="n" horiz-adv-x="645" d="M570 47Q552 11 479 -4Q468 13 468 32Q468 46 477 74T486 116Q486 138 470 156Q470 183 472 185Q483 392 463 456Q431 520 274 514Q263 500 226 497Q186 495 174 485Q170 481 135 463Q109 451 104 432Q106
408 101 375Q95 337 95 324Q95 299 104 278Q107 193 93 154Q110 96 102 22Q51 7 17 -6Q6 30 14 107Q19 119 15 142T14 175Q13 207 16 271Q19 291 28 304Q29 308 29 311Q29 319 20 326T9 339Q6 376 19 436Q21 453 11 485T0 528Q0 555 33 566Q66 590 81 590Q95 590
103 575Q105 556 107 536T127 514Q156 536 185 557Q222 580 257 580Q265 580 274 579Q290 595 327 588Q369 581 386 591Q413 590 460 574Q471 573 494 559Q518 558 545 521Q545 521 560 488Q564 470 564 452Q564 434 559 403T553 357Q553 335 560 315Q547 308 554
271Q561 259 561 220Q561 199 564 188Q571 164 570 120Q569 56 570 47Z" />
<glyph unicode="o" glyph-name="o" horiz-adv-x="775" d="M704 220Q698 220 698 212T696 201Q689 171 665 137Q627 81 625 79Q610 79 608 68Q601 58 584 52Q564 46 558 41Q474 -5 430 -5Q421 -5 411 -4Q357 -21 286 -21Q214 -21 169 -2Q42 33 4 157Q3 162 8 192Q12
213 0 224Q-5 241 0 277Q0 316 12 325Q22 349 38 398Q45 412 76 437Q105 459 111 478Q141 488 197 525Q250 561 285 570Q295 571 324 581Q348 589 366 589Q375 589 385 587Q422 604 468 585Q478 573 493 568Q507 571 519 571Q573 571 624 518Q630 502 666 477Q698
456 700 430Q715 405 715 373Q715 359 705 299Q697 252 704 220ZM609 359Q604 367 594 412Q586 445 565 455Q548 480 511 503Q463 533 453 541Q422 548 352 549Q321 545 264 523Q229 497 194 470Q154 438 136 407Q124 365 82 292Q84 279 97 260Q99 242 92 233Q112
183 130 155Q136 148 146 115Q153 89 171 86Q241 41 396 23Q429 30 493 53Q521 78 548 103Q582 133 589 165Q621 192 621 252Q621 253 609 359Z" />
<glyph unicode="p" glyph-name="p" horiz-adv-x="765" d="M699 318Q701 296 703 274Q703 244 687 236Q679 212 640 153Q635 145 597 129Q568 117 569 91Q567 81 553 81Q535 81 531 79Q480 12 374 -1Q271 -13 191 1Q185 -2 147 -1Q120 0 120 -23Q116 -72 112 -122Q108
-183 118 -214Q118 -217 121 -245Q123 -267 120 -280Q117 -298 106 -305Q105 -329 117 -373T127 -446Q134 -459 128 -480Q121 -502 125 -515Q129 -536 133 -558Q136 -586 122 -599Q95 -636 63 -644Q52 -648 39 -646Q25 -644 27 -633Q18 -616 25 -559Q23 -529 32
-484Q41 -434 41 -412Q45 -395 30 -370Q30 -186 32 -162Q54 -131 44 -73Q41 -65 29 -55Q21 62 28 181Q31 194 43 213Q13 282 24 422Q22 456 0 507Q5 526 28 546Q64 578 65 578Q87 584 109 578Q114 575 121 554Q127 538 139 541Q209 582 294 573Q315 585 348 588Q371
590 411 588Q459 586 470 586T494 578Q509 567 513 565Q593 544 610 503Q614 503 626 496T648 492Q693 439 699 318ZM611 250Q614 335 593 353Q592 376 567 405T542 459Q526 465 427 506Q410 510 386 514Q356 521 322 521Q234 521 141 484Q123 475 110 413Q122
350 113 221Q122 205 123 169Q123 141 123 114Q182 65 231 66Q255 67 299 59T367 50Q379 50 391 52Q423 51 457 73Q509 105 517 109Q546 140 575 171Q609 209 611 250Z" />
<glyph unicode="q" glyph-name="q" horiz-adv-x="735" d="M651 -577Q637 -611 563 -633Q540 -637 538 -612Q538 -605 542 -571Q552 -555 549 -525T558 -448Q561 -441 561 -434Q561 -425 555 -404T548 -371Q548 -360 552 -351Q555 -311 576 -239Q576 -239 570 -208T563
-119Q563 -33 563 -27Q553 -19 555 12Q556 37 533 41Q499 30 395 11Q377 -8 343 -13Q319 -16 278 -13Q230 -10 218 -11Q148 9 126 17Q76 37 50 68Q45 87 41 105Q34 126 18 131Q-7 187 15 216Q18 223 11 228T5 239Q0 271 0 274Q16 317 27 336Q44 368 70 390Q79 430
126 468Q193 522 202 532Q242 549 282 567Q331 587 369 587Q401 587 431 574Q444 575 464 570Q474 571 488 563T509 555Q517 555 525 562Q596 583 608 583Q624 583 637 577Q640 560 640 543Q640 518 630 476T619 407Q619 397 620 386Q653 329 630 182Q645 159 641
113Q637 53 639 41Q645 5 642 -54Q638 -125 639 -153Q611 -183 625 -230Q629 -244 638 -315Q634 -317 640 -327Q639 -413 651 -577ZM556 282Q554 320 549 403Q545 411 542 451Q540 484 526 495Q478 503 475 503Q447 500 396 506Q334 514 312 514Q273 514 243 502Q235
492 197 469Q166 450 161 426Q142 413 128 381Q115 354 103 328Q100 308 100 289Q100 239 138 128Q160 128 169 101T195 74Q201 74 207 75Q220 75 246 64T287 53Q300 53 312 58Q368 51 491 79Q498 80 510 82Q558 100 558 176Q558 191 556 219T554 260Q554 273 556
282Z" />
<glyph unicode="r" glyph-name="r" horiz-adv-x="480" d="M450 548Q448 546 424 512Q407 488 388 488Q379 488 368 493Q305 524 253 518Q208 503 164 489Q115 468 101 429Q97 423 92 354Q90 335 83 326Q99 298 100 236Q102 159 107 139Q94 77 94 80Q94 61 107
48Q110 37 100 28Q85 14 84 13Q73 14 53 6T25 -2Q15 -2 8 6Q8 33 10 36Q20 81 13 178Q13 171 12 216Q11 238 24 246Q40 265 30 284Q9 296 9 352Q10 393 11 434Q9 466 0 490Q-15 518 2 540Q55 581 73 581Q82 581 90 576Q97 553 124 517Q184 546 315 588Q325 591
335 591Q348 591 370 583T406 574Q416 574 427 577Q445 561 450 548Z" />
<glyph unicode="s" glyph-name="s" horiz-adv-x="605" d="M542 226Q546 152 533 142Q505 139 487 105Q465 65 452 57Q447 46 432 39T404 24Q327 -9 162 -15Q55 5 0 79Q-6 123 27 138Q40 141 59 153Q76 150 78 125Q81 94 88 88Q171 20 234 20Q260 20 286 30Q389
34 427 104Q457 160 451 207Q441 233 403 272Q403 272 274 286Q258 285 230 278Q216 273 203 273Q189 273 159 284T106 292Q53 306 38 359Q39 414 93 480Q236 590 323 590Q365 590 406 573Q420 573 423 575Q444 583 484 569Q485 543 459 527Q437 516 414 505Q374
498 317 524Q238 519 213 512Q159 498 137 456Q123 429 131 406Q148 402 179 376Q207 353 225 353Q237 353 249 360Q295 367 336 367Q449 367 510 314Q525 301 542 226Z" />
<glyph unicode="t" glyph-name="t" horiz-adv-x="495" d="M466 544Q466 544 463 531Q414 477 349 477Q325 477 301 487Q305 488 247 488Q214 488 206 468Q212 453 212 438Q212 420 200 391T187 347Q187 327 207 311Q209 321 209 265Q209 237 190 230L189 225Q189
216 207 194L206 169Q203 111 241 50Q255 40 283 40Q288 40 332 44Q340 49 382 85Q420 117 424 117Q441 117 441 89Q441 89 438 71Q397 27 288 -3Q271 -18 237 -18Q227 -18 201 -16T160 -14Q118 9 109 70Q113 74 118 150Q123 228 117 238Q124 258 122 308Q121 354
132 377Q117 387 117 448Q117 489 87 495Q56 494 25 494H1V498Q1 507 11 521Q24 539 25 544Q35 551 79 553Q116 555 122 576Q122 576 122 671Q122 687 114 714T105 754Q105 770 138 803Q149 805 172 819Q192 832 206 831L215 830Q215 817 224 795V795Q220 750 215
705Q209 651 191 618Q206 582 209 577Q223 555 246 552T313 539Q440 562 454 562Q466 562 466 544Z" />
<glyph unicode="u" glyph-name="u" horiz-adv-x="660" d="M587 54Q570 35 496 9Q488 17 480 47Q473 71 458 73Q440 67 341 23Q283 4 222 4Q172 4 141 19Q117 19 69 25Q50 43 19 81Q20 89 20 97Q20 114 13 146T6 196Q6 214 12 231Q13 298 15 425Q9 438 6 531Q5
555 0 569Q28 588 94 611Q94 606 101 605T109 599Q107 553 110 458Q90 397 98 372Q109 356 95 305Q90 267 98 196Q103 165 107 134Q115 98 143 90Q240 64 273 64Q314 64 343 82Q363 74 376 76Q416 112 432 130Q461 163 475 194Q475 446 471 510Q472 513 473 518Q473
526 466 542T459 566Q459 578 471 586Q508 605 553 613Q568 578 568 531Q568 502 560 442T552 350Q526 331 537 315Q540 309 552 304Q550 237 567 113Q576 94 587 54Z" />
<glyph unicode="v" glyph-name="v" horiz-adv-x="600" d="M559 606Q560 585 542 555T524 503Q485 410 461 330Q446 302 420 244Q401 210 376 134Q364 123 343 74Q327 35 296 26Q284 16 258 1Q241 32 202 89Q199 109 182 140T163 192Q167 208 154 226T140 255Q140
262 142 270Q139 279 113 297Q92 312 95 334Q87 343 78 402Q46 419 42 454Q-1 534 0 572Q1 572 39 599Q63 615 86 614Q97 606 105 588Q116 560 118 558Q127 514 156 438Q169 407 186 343Q195 333 204 304T228 264Q232 236 241 217Q245 216 247 207T258 199Q268
179 279 159Q292 134 314 131Q337 162 360 212Q396 292 399 296Q422 300 423 330Q423 355 423 379Q426 391 434 397Q448 408 451 485Q460 496 480 561Q494 611 530 611Q543 611 559 606Z" />
<glyph unicode="w" glyph-name="w" horiz-adv-x="900" d="M833 560Q831 559 827 534Q827 529 825 527Q822 517 775 394Q776 386 776 379Q776 360 763 331T752 280Q737 247 720 174T688 68Q678 63 652 36Q632 15 612 15Q570 42 564 114Q550 126 535 139T519 170Q516
214 487 261Q500 293 493 309Q467 321 436 382Q416 354 384 246Q357 175 349 128Q337 94 326 61Q308 23 276 13Q270 13 260 7T240 3Q212 36 190 116T142 228Q142 252 142 276Q139 304 116 307Q106 322 86 374Q70 417 47 436Q44 455 20 494Q-1 529 0 557Q6 566 80
616Q100 612 108 585Q114 562 120 539Q126 532 129 471Q132 429 169 430Q184 411 195 348Q206 290 228 268Q232 244 266 161Q271 151 296 151Q316 186 325 254Q343 262 344 297T360 340Q358 347 366 363Q370 391 374 419Q378 451 398 464Q399 473 393 483T386 500Q388
509 388 520Q388 529 386 544T384 566Q384 598 421 603Q439 614 471 612Q510 582 513 479Q510 461 526 438Q544 412 545 397Q563 354 581 299Q590 269 611 211Q616 168 647 152Q664 159 670 177Q671 182 666 191Q675 208 681 250Q716 345 716 362Q720 373 728 392Q730
419 751 565Q783 592 784 593Q804 607 824 609Q834 604 834 587Q833 558 833 560Z" />
<glyph unicode="x" glyph-name="x" horiz-adv-x="665" d="M622 71Q620 51 605 36T574 8Q532 6 528 8Q500 34 451 93Q434 132 376 178Q314 227 297 257Q292 257 285 263Q263 248 228 206T168 149Q146 132 115 78Q88 29 59 16Q40 -7 19 -3Q19 -3 6 11Q-2 19 0 27Q24
57 79 109Q104 127 137 170T191 227Q212 247 235 301Q191 367 137 416Q113 420 97 458T52 496Q5 534 8 557Q44 604 79 604Q89 604 99 601Q122 586 149 544Q181 496 196 481Q272 430 282 373Q287 359 298 359Q311 359 329 375Q333 388 363 405Q389 419 385 444Q412
461 436 510T481 577Q489 579 503 591T526 603Q533 603 540 597Q543 570 514 539Q483 505 479 485Q448 464 411 414Q365 354 347 337Q347 317 370 302Q396 283 400 272Q430 240 498 182Q499 161 522 151Q558 137 559 135Q566 121 591 104T622 71Z" />
<glyph unicode="y" glyph-name="y" horiz-adv-x="680" d="M598 149Q598 137 593 114T587 80Q587 63 596 50Q592 -54 590 -74Q583 -142 562 -183Q564 -192 564 -201Q564 -216 553 -239T541 -274Q540 -277 491 -322Q477 -340 453 -381Q442 -411 400 -438Q348 -471
336 -485Q181 -540 134 -540Q99 -540 65 -530Q21 -513 -50 -459Q-96 -441 -79 -371Q-74 -346 -41 -360Q-18 -413 -5 -431Q21 -467 58 -473Q95 -501 165 -501Q217 -501 256 -485Q301 -474 351 -425Q429 -348 432 -346Q447 -302 482 -215Q484 -108 505 -30Q510 -11
504 12Q498 42 498 54Q501 77 496 108Q489 144 489 161Q473 160 452 143T419 123Q372 86 275 16Q206 -5 159 -5Q92 -5 57 33Q24 89 24 97Q24 111 33 124Q35 135 30 154T24 180Q24 195 39 204Q39 233 51 244Q50 256 50 268Q50 301 67 372Q83 437 80 480Q80 490 72
505Q60 526 59 530Q70 553 107 569Q153 589 164 598Q165 598 175 598Q182 598 182 604Q190 599 202 583Q192 555 176 495Q178 487 173 478Q165 445 156 377Q157 364 140 346T122 319Q122 310 135 299Q134 221 119 141Q124 111 154 87Q180 69 207 51Q215 48 221
48Q231 48 246 59T272 70Q276 70 281 68Q322 81 374 129Q436 186 460 199Q501 262 501 371Q501 420 492 473Q496 490 485 516T473 550Q473 565 494 573Q522 610 574 597Q583 563 580 494Q574 477 574 459Q574 439 584 404T594 350Q594 327 583 305Q610 227 598
149Z" />
<glyph unicode="z" glyph-name="z" horiz-adv-x="610" d="M564 97Q570 93 571 88Q571 86 566 78T562 64Q546 45 530 27Q511 7 489 7Q476 7 461 13Q459 21 454 17Q447 11 442 13Q427 18 375 21Q331 22 314 37Q38 15 26 15Q24 15 0 32Q4 50 25 70Q49 94 55 106Q113
194 164 213Q185 273 220 310Q234 337 279 372Q297 405 342 464Q338 472 346 478T354 490Q369 511 360 528Q325 540 257 542Q174 544 150 548Q139 544 74 542Q57 542 45 539Q41 560 64 577Q93 598 97 610Q113 610 194 596Q211 602 229 602Q249 602 284 592T336
582Q356 582 375 590Q424 594 507 593Q510 585 510 577Q510 559 491 539Q467 514 464 504T441 485T419 461Q413 452 372 410Q370 409 368 403T361 399Q351 373 327 344Q291 301 287 296L208 180Q204 181 200 181Q187 181 180 168T166 142Q169 130 162 117T154 96Q154
90 158 83Q236 71 270 77Q291 76 378 80Q446 84 486 72Q495 74 524 87Q547 97 564 97Z" />
<glyph unicode="{" glyph-name="braceleft" horiz-adv-x="500" d="M465 -134Q468 -164 417 -173Q341 -185 338 -187Q326 -187 312 -176T293 -163Q293 -163 276 -159Q211 -122 159 -33Q134 0 124 90Q111 108 111 132Q111 154 130 214Q148 269 144 300Q148 300 150
307T158 315Q152 367 118 463Q84 492 35 499Q27 533 35 548Q84 555 118 584Q134 610 143 656Q155 720 158 732Q153 732 151 739T144 747Q148 778 130 833Q111 893 111 915Q111 939 124 957Q129 1002 134 1022Q142 1058 159 1080Q193 1137 208 1154Q229 1180 276
1206Q282 1206 293 1210Q297 1211 311 1222T338 1234Q341 1232 417 1220Q468 1211 465 1181Q462 1174 413 1145Q324 1171 317 1171Q288 1171 264 1155Q236 1149 221 1107Q211 1072 201 1038Q184 1019 184 995Q184 972 210 915T236 824Q236 815 234 806Q212 778
238 724Q231 645 209 600Q212 596 212 591Q212 582 199 560T182 523Q185 508 198 487T212 456Q212 451 209 447Q231 402 238 323Q212 269 234 241Q236 232 236 223Q236 190 210 133T184 52Q184 28 201 9Q211 -25 221 -60Q236 -102 264 -108Q288 -124 317 -124Q324
-124 413 -98Q434 -105 465 -134Z" />
<glyph unicode="|" glyph-name="bar" horiz-adv-x="300" d="M213 -150Q213 -161 208 -170Q216 -306 202 -353Q187 -366 171 -366Q164 -366 158 -364Q145 -343 108 -310Q102 -297 102 -284Q102 -237 116 -140T131 3Q131 30 133 82T136 159Q136 170 132 191T128
223Q128 249 135 277Q127 285 134 302Q142 325 142 328Q142 340 132 370T122 418Q122 456 137 527Q127 542 129 573Q132 608 127 620Q132 658 126 711Q117 778 117 801Q117 842 113 911Q108 991 107 1020Q115 1036 115 1053Q115 1061 88 1213Q95 1244 127 1244Q135
1244 154 1226Q177 1202 180 1200Q190 1172 190 1134Q190 1090 185 1061Q183 1049 188 1035Q193 1018 194 1010Q200 866 200 709Q200 685 191 666Q197 652 195 624T198 583Q196 557 201 513Q206 464 206 444Q206 431 201 407T195 371Q195 358 200 336Q206 311 207
300Q213 229 213 96Q213 -114 212 -109Q213 -107 213 -150Z" />
<glyph unicode="}" glyph-name="braceright" horiz-adv-x="500" d="M465 499Q416 492 382 463Q366 437 357 391Q345 327 342 315Q347 315 349 308T356 300Q352 269 370 214Q389 154 389 132Q389 108 376 90Q371 45 366 25Q358 -11 341 -33Q307 -90 292 -107Q271
-133 224 -159Q218 -159 207 -163Q203 -164 189 -175T162 -187Q159 -185 83 -173Q32 -164 35 -134Q38 -127 87 -98Q176 -124 183 -124Q212 -124 236 -108Q264 -102 279 -60Q289 -25 299 9Q316 28 316 52Q316 75 290 132T264 223Q264 232 266 241Q288 269 262 323Q269
402 291 447Q288 451 288 456Q288 465 301 487T318 524Q315 539 301 562Q288 582 288 591Q288 596 291 600Q269 645 262 724Q288 778 266 806Q264 815 264 824Q264 857 290 914T316 995Q316 1019 299 1038Q289 1072 279 1107Q264 1149 236 1155Q212 1171 183 1171Q176
1171 87 1145Q66 1152 35 1181Q32 1211 83 1220Q159 1232 162 1234Q174 1234 188 1223T207 1210Q207 1210 224 1206Q289 1169 341 1080Q366 1047 376 957Q389 939 389 915Q389 893 370 833Q352 778 356 747Q352 747 350 740T342 732Q348 680 382 584Q416 555 465
548Q473 514 465 499Z" />
<glyph unicode="~" glyph-name="asciitilde" horiz-adv-x="500" d="M445 516Q438 509 428 491Q404 453 342 426Q333 422 330 415Q307 410 287 421Q255 437 249 439Q233 445 201 456Q171 464 150 450Q127 447 116 442Q98 435 92 419Q64 411 64 411Q52 414 55 433Q91
462 164 522Q173 524 194 532Q212 540 223 540Q233 540 243 535Q269 517 325 492Q375 490 387 510Q423 537 442 535Q453 526 445 516Z" />
</font>
</defs>
</svg>
